<?xml version="1.0" encoding="UTF-8"?>
<svg id="Layer_1" xmlns="http://www.w3.org/2000/svg" version="1.1" xmlns:cc="http://creativecommons.org/ns#" xmlns:dc="http://purl.org/dc/elements/1.1/" xmlns:inkscape="http://www.inkscape.org/namespaces/inkscape" xmlns:rdf="http://www.w3.org/1999/02/22-rdf-syntax-ns#" xmlns:sodipodi="http://sodipodi.sourceforge.net/DTD/sodipodi-0.dtd" xmlns:svg="http://www.w3.org/2000/svg" viewBox="0 0 275.8 253.1">
  <!-- Generator: Adobe Illustrator 30.3.0, SVG Export Plug-In . SVG Version: 2.1.3 Build 182)  -->
  <defs>
    <style>
      .st0 {
        fill: #aaa;
      }

      .st1 {
        fill: #ff4500;
      }
    </style>
  </defs>
  <sodipodi:namedview id="namedview4186" bordercolor="#666666" borderopacity="1" fit-margin-bottom="10" fit-margin-left="10" fit-margin-right="10" fit-margin-top="10" gridtolerance="10" guidetolerance="10" inkscape:current-layer="Layer_1" inkscape:cx="-362.44067" inkscape:cy="-271.83051" inkscape:deskcolor="#d1d1d1" inkscape:pagecheckerboard="0" inkscape:pageopacity="0" inkscape:pageshadow="2" inkscape:showpageshadow="2" inkscape:window-height="1052" inkscape:window-maximized="1" inkscape:window-width="2560" inkscape:window-x="0" inkscape:window-y="0" inkscape:zoom="0.1489899" objecttolerance="10" pagecolor="#ffffff" showgrid="true">
    <inkscape:grid id="grid3785" originx="6.0000002" originy="-545.20001" spacingx="1" spacingy="1" type="xygrid" units="px" visible="true"/>
  </sodipodi:namedview>
  <path id="path4182" class="st1" d="M135.3,105.9c29,0,58,0,87,0l43.5,13v26h-58.8v-.2c0-5.2-4.3-9.5-9.5-9.5h-11c-5.2,0-9.5,4.3-9.5,9.5h0s-78,0-78,0h0c0-5.2-4.3-9.5-9.5-9.5h-11c-5.2,0-9.5,4.3-9.5,9.5h0s-58.8,0-58.8,0v-25.6l37.4-13.3h87.7Z" inkscape:connector-curvature="0" inkscape:export-xdpi="5.792706" inkscape:export-ydpi="5.792706"/>
  <path class="st0" d="M251.1,79.9c-.7,3.3-5.9,4.7-9.1,5.5l-4.5,1.1c1.3-6.5-7.3,1.7-11.6-3.6s-1.5-1.9-2.3-2.2-2.5,1.2-3.3,1.1c-4.3-.8-6.7-6.7-4.4-10.5,1.2-1.6,3.9-2.5,5.7-3.6,3,1.6,4.3,4.2,6.5,7.1,2.2-1.5,4.8-3.5,7.1-2s1,3.4,2.2,4.8c4.8-6.4,10.7-2.2,14.9-9.9s3.3-3.9,5.9-1.9c-3.1,3.1-3.8,5.6-4,9.5-1.3,1.3-2.7,2.8-3.1,4.6Z"/>
  <path d="M256.5,34.5c-5.5-5-13-9.7-20.7-7.6,1.2,1.6,3.9.6,4.8,1.1,3.4,2.7,6.6,5.1,10.4,6,.4,1.9,2.2,2.9,3.7,4.2,4.3,3.8,5.6,9.3,6.9,14.8,2.3,9.8-1.2,20.3-9.8,25.4-.6,3.1-5.6,4.5-8.7,5.3l-4.3,1.1c-15.2,1.1-28.8-4.9-31-20.9l-.9-6.6c.9-5.9,2.8-12.7,7.1-16.8l7.1-6.7c.8-.8,2.8-1.5,2.3-3.6,2.5-1.2,5.1-.9,8.1-3.7-7.5.3-16.2,2-22.3,7.3-1.2,1-3.2,5.3-5.2,4.1l-16.8-10.4-15.1-10.5-8.2-5.1c-1.5-.9-2.1-2.2-3.9-2-5.2.6-8.5,10.7-11.5,17.4l-11.4,26.5-.4,6.9c.3.4.6.9.4,1.3-.3.6-1.1.8-1.5.8v.6c-.1.9,0,2.2-1.1,2.7,1.2,1.9-.8,4.7-1,6.3l-.9,7.5c-.1,1.1-.1,2.2,0,3.2,0,.6-.3,1.2-.9,1.5,1.2,1.9-.8,4.7-1,6.3l-.9,7.5c-.3,2.7-1,5.1-.1,7.5h10.9l1-7.8c.2-1.3-.4-2.9.9-3.8v-4.4c0-.7.1-1.4.4-2v-.6h.6l.8-6c.2-.2.3-.4.6-.6l1.2-6.8c0-.3-.4-1.3-.7-2.2v-.4c0-.7.2-1.4.4-2l.4-3.3c.2-1.5.2-2.9,1.5-3.9l1.2-6.8c.1-.6-.2-1.8.8-1.9v-1.7c0-.7,0-1.6.8-1.9l1.9-7c.2-.6,0-1.7.8-1.9l1.8-6.1c.2-.7.2-1.6.9-1.9.7-4.1,3.7-8,5.8-11.6.3-.6.6-1.9,1.7-1.6.6.2,1.2,1.2,1.6,1.7,1.9,2.4,5.3,2.9,7.8,4.7,3,2.1,5.3,4.3,8.9,4.3,1.2,0,2.4.6,2.9,1.8l15.9,10.4c2.4,1.6,1.3,3.4.8,5.3-3.1,10.5-2.8,19.2,3,28.6,4.6,7.5,12.7,10.6,20.5,13.2,8.7,2.9,16.3,1.8,23.8-3,4.4-2.8,9.7-4.3,12-9.3.3-1,.9-2.1,1.8-2.8,3.5-3.8,3-8.8,3.3-13.8.8-10.4-1.8-19.3-9.2-26.1Z"/>
  <path class="st1" d="M206.8,156v9.2c0,5.2-4.3,9.5-9.5,9.5h-11c-5.2,0-9.5-4.3-9.5-9.5v-8.9h-78v9c0,5.2-4.3,9.5-9.5,9.5h-11c-5.2,0-9.5-4.3-9.5-9.5v-9H10v86.8h255.8v-87h-59Z"/>
</svg>