<?xml version="1.0" encoding="UTF-8"?>
<svg id="Layer_1" xmlns="http://www.w3.org/2000/svg" version="1.1" xmlns:cc="http://creativecommons.org/ns#" xmlns:dc="http://purl.org/dc/elements/1.1/" xmlns:inkscape="http://www.inkscape.org/namespaces/inkscape" xmlns:rdf="http://www.w3.org/1999/02/22-rdf-syntax-ns#" xmlns:sodipodi="http://sodipodi.sourceforge.net/DTD/sodipodi-0.dtd" xmlns:svg="http://www.w3.org/2000/svg" viewBox="0 0 275.8 253.1">
  <!-- Generator: Adobe Illustrator 30.3.0, SVG Export Plug-In . SVG Version: 2.1.3 Build 182)  -->
  <defs>
    <style>
      .st0 {
        fill: #fff;
      }

      .st1 {
        fill: none;
      }

      .st2 {
        fill: #202020;
      }

      .st3 {
        fill: #aaa;
      }

      .st4 {
        fill: #ff4500;
      }
    </style>
  </defs>
  <g>
    <rect class="st4" x="175.9" y="122.7" width="30.9" height="60.5"/>
    <g>
      <path class="st2" d="M209.2,182.9c0,.3.4.2.5.2,0-.5-.6-.2-.5-.2Z"/>
      <polygon class="st2" points="208.3 178.5 208.5 178.5 208 177.9 208.3 178.5"/>
      <path class="st2" d="M208.3,174.3c-.7.4.1,1.5-.1,2.3h-.2c0,.1.6.5.6.5,0-.9-.5-2.1-.3-2.7Z"/>
      <path class="st2" d="M209.8,172.1c-.3.1-.2-.5,0,.5,0,0,0,0,0,0,0,0,0-.2,0-.4Z"/>
      <path class="st2" d="M209.8,172.5c0,.4.2-.3,0,0h0Z"/>
      <path class="st2" d="M209.7,170.5l.2.6c.2-.1.2-.6.3-.4-.1-.6-.3-.5-.6-.1Z"/>
      <path class="st2" d="M209.1,169.9v.3c.2,0,.2-.1,0-.3Z"/>
      <path class="st2" d="M209.5,170.9l-.2-.6c-.1,0-.3,0,0,.3-.2,0,0,0,.1.3Z"/>
      <path class="st2" d="M209.4,171.2c-.2.3-.3.7-.5.2,0,1.1.6.9.5-.2Z"/>
      <path class="st2" d="M207.6,174.1l-.2.4.2.4c-.1-.2.2-.8,0-.8Z"/>
      <path class="st2" d="M210,166.9c-.2,0-.4.2-.6.2l.2.4c.1-.2.2-.6.4-.7Z"/>
      <path class="st2" d="M209.4,167.1l-.3-.6c0,.6,0,.7.3.6Z"/>
      <polygon class="st2" points="208.3 169.8 208.9 170.9 208.3 169.6 208.3 169.8"/>
      <polygon class="st2" points="210 164.4 210.4 164.8 209.9 164.1 210 164.4"/>
      <path class="st2" d="M210,162.8c.3.3.5-.4.7,0,0-.4-.3-.8-.5-1.2.1.4,0,.7-.1,1.2Z"/>
      <path class="st2" d="M209.8,161c0,.2.2.4.3.6,0-.2-.2-.4-.3-.6Z"/>
      <path class="st2" d="M209.2,165.4c0,0,.3-.1.4-.5l-.4.3c0,0,0,.2,0,.3Z"/>
      <path class="st2" d="M209.2,165.1h0c0-.3,0-.5,0-.6,0,0,0,.2,0,.6Z"/>
      <path class="st2" d="M209.2,165.4s0,0,0,0c0,0,0,0,0,0Z"/>
      <path class="st2" d="M208.7,168.1c-.2-.4-.5-1.2-.9-.4.3.3.5-.2.9.4Z"/>
      <path class="st2" d="M208.7,165.8v.7s.2-.1.3,0l-.3-.7Z"/>
      <polygon class="st2" points="208.6 165.4 208.7 165.8 208.7 165.5 208.6 165.4"/>
      <path class="st2" d="M209.4,162.2c-.2-.3-.2-.6-.2-1,0,.4-.1.8-.1,1.2.1,0,.4.2.4-.2Z"/>
      <path class="st2" d="M209.3,163.6h0s0,0,0,0Z"/>
      <polygon class="st2" points="209.2 157.6 209.1 157.7 209.2 157.7 209.2 157.6"/>
      <path class="st2" d="M209,162.4c0,.3,0,.5.2.6,0-.2,0-.4,0-.7,0,0-.1,0,0,0Z"/>
      <path class="st2" d="M209.6,160c0,.2-.2.3-.2.5.1-.1.3-.5.2-.5Z"/>
      <path class="st2" d="M209.4,163.4h0c0,0,0,0,0,0Z"/>
      <path class="st2" d="M209.4,163.4c0-.2-.2-.3-.3-.4,0,.2,0,.3.1.5,0,0,0,0,.1,0Z"/>
      <path class="st2" d="M206.4,156.5c.4,0,.8.8.3,1.5.3.7,1.6.2,2.3-.3-.2,0-.3,0-.6-.7-.2.2-.5,1.5-.9.9-.2-.9.1-.7.3-1.2-.5.4-.7-1.1-1.4-.9l.3.8c-.1,0-.3-.3-.4,0Z"/>
      <path class="st2" d="M209.1,159v.3c.1-.3.3-.5.6-1-.2-.5-.3-.6-.5-.6v1.4c0,0-.1,0-.1,0Z"/>
      <path class="st2" d="M209.1,160.5c-.4-.2-.6-.9-1.1-.5,0,.8.4.6.5,1.1-.1-1.3.2.4.5-.6,0,.3,0,.5.1.7,0-.2.1-.5.2-.7h0s0,0,0,0h0c0,0,0,0,0,0,0,0,0,0,0,0,0,0-.1,0-.2,0,0-.4.1,0,.2,0,0,0,0,0,0,0h0s-.2-1.3-.2-1.3c0,.3,0,.6,0,1.2Z"/>
      <path class="st2" d="M206.9,167s0,0,.1,0c0,0,0-.1-.1,0Z"/>
      <path class="st2" d="M207.2,166.5c0,0,.2.2.2.5-.1.3-.2,0-.3,0,.1.2.3.7.5,0h0c.1-.6.7-1.3.7-1.2-.4.2-.7.3-1,.6Z"/>
      <path class="st2" d="M208,163.5l-.2-1.1-.4.6h.2c0,.6.2.5.4.5Z"/>
      <polygon class="st2" points="209.4 157.5 209.8 157.6 209.2 157 209.4 157.5"/>
      <polygon class="st2" points="209.3 156.1 209.7 156.1 209.5 155.8 209.3 156.1"/>
      <path class="st2" d="M178.3,138.2v.3c0-.2,0-.2,0-.3Z"/>
      <path class="st2" d="M178.3,135.9h-.2c.1,0,.2,0,.2,0Z"/>
      <path class="st2" d="M207.1,120.2c-.5-.4-1.2-.9-1.3-.5,0,.1,0,.3,0,.4.6,0,1,0,1.3,0Z"/>
      <path class="st2" d="M181.6,122.8h.1c.1,0,.2-.2.3-.3-.1,0-.3.2-.5.3Z"/>
      <path class="st2" d="M181.3,124.6l-.6-.3c.1,0,.3.2.6.3Z"/>
      <path class="st2" d="M178.7,150.9l.4.4c0-.6-.2-.3-.4-.4Z"/>
      <path class="st2" d="M209.2,141.6c.2-.4.2-.7.3-1-.2.5-.6.9-.3,1Z"/>
      <path class="st2" d="M173.7,137.3c0,.2.2.3.3.3,0-.2-.2-.3-.3-.3Z"/>
      <path class="st2" d="M209.4,139.4c0,0,0,.1-.1.2,0,.3.1.6.1.9.2-.4.3-.8,0-1.2Z"/>
      <path class="st2" d="M189.5,180.6s0,0,.1,0c0,0,0,0-.1,0Z"/>
      <path class="st2" d="M202.9,185c-.1,0-.3,0-.5,0,0,0,.3,0,.5,0Z"/>
      <path class="st2" d="M209.5,150.4c0,.3,0,0,0,0h0Z"/>
      <path class="st2" d="M207.8,151.9c0,0-.1-.1-.2-.1.1,0,.2,0,.2.1Z"/>
      <path class="st2" d="M206.7,136.4h0c0,0,0,0,0,0Z"/>
      <path class="st2" d="M209.3,150.8c0-.1,0-.2.1-.4,0,0,0,.2-.1.4Z"/>
      <path class="st2" d="M209.5,150.8c0,.1,0,.2,0,.3,0,0,.1,0,0-.3Z"/>
      <path class="st2" d="M209.5,150c0,.2,0,.3,0,.5,0,0,0,0,0,0,0,0,0-.2,0-.4Z"/>
      <path class="st2" d="M177.2,172.2s0,0,0,0c.2.3.2.2,0,0Z"/>
      <path class="st2" d="M197.6,124.7s0,0,0,0c0,0,0,0,0,0h0Z"/>
      <path class="st2" d="M196.6,125c.5-.5.7-.5,1.1-.4l-.4-1.3-.7,1.6Z"/>
      <path class="st2" d="M178.4,143.8l.4-.8c.6.9.4,1.6,1,.9-1.4-.1-.1-2.9-1.5-3l.3-.5c0,.1,0,.2,0,.3.7-1-1-.7-.8-2,.1-.4.3-.7.5-.4l-.3-1c0-.3.3-.2.2,0v-1.5c-.1,0,0,0,0,0-.2-.2-.5-.7-.7-.9.2-.4.1.2.3,0l-.3-.8c.4-.3.7.3.6.9,1.4-.8-.3-.7.5-2.3l.2.8c.8-.5.5-1.1,1-2-.3.2-1.2,1.8-1.5.9.1-.3.2-.6-.1-1.1.5,0,.4-.5.3-1.1h.6c-.2-.6-.5-.5-.8-.9,0-.7.6-.9,1-1,.1-1.1-.8.8-.9-.6.1-.5.1-.9,0-1.3,0-.2-.2-.4-.4-.7.2-.2.4.2.6.2-.2-.1-.3-.3-.5-.5,0,0,.2,0,.2.1-.2-.3-.6-.4-.8-1-.3-.3-.1-.4,0-.5.6.3,1.1.6,1.2.2.2.2.2.4.3.6.1-.3.3-.4.4-.5.1-.1.2-.3.6-.6l.9.4c-.7-.5.2-1,.9-1.5-.2-.2-.4-.4-.6-.5l1.2-.3c.1.1,0,.3-.2.6,0,0,.2-.1.2-.2.4.2.2.6-.1,1l-.4-.4c-.3.4-.6.8-.5,1.2,0,0,.2-.1.4-.2,0,.1-.1.2,0,.3,0,0,.2,0,.4-.2l.3.7v-.3c0,0,1.6.4,1.6.4,1.1-.7,2.1-1.8,3.9-2.1-.4.5,0,.9-.1,1.5-.5-.7-1.4.3-2.3.1.5,0,.4.4.3.5l1.7-.6c0,.5.4.4.8.6-.3-1,1.2-.7,1.9-1,0,.3-.1.7-.9.6.9.8,1.2-1.2,2.1-.5-.2,0-.3,0-.4.1.5-.3,1.6,0,1.3.2h-.2c1.3.1,4.1,0,4.3-.8,0,.1-.2,1-.3,1.2l2.4-2.9c-.2.7.6,2.5-.5,2.9.3.1.7.2,1.4,0-.2-.1-.5-1.1-.2-1.1.8.8.6.4,1.6,1.1-.3-.2,0-1.3.5-1.3,0,.2,0,1.1-.1,1.2l1.3-1.1c-.3.2,0,1,.2,1.3,0-.1.2-.1.5,0,.3,0,.4,0,.5,0,0,0-.1-.2-.2-.3.4,0,.6-.3,1.1-.7.4-.4,1-.8,1.7-.8-.4.2-1.4,1.4-1.1,1.6.2-.2.5-.4,1-.8.4-.3,1-.4,1.4-.3.5,0,.9.5,1,1l-.3.4c.1.4.3.8.4,1.2-.4-.4-1.1-1-1.8-1.2-.7-.3-1.3-.2-1.6,0-.3.5-.4.4-.4.7-.3.3-.5.2-.5.1,0,.2-.1.4-.2.6.7-.3.7.3,1.2.3-.2-.4-.5-.6-.7-.7.3-.2.8-.3,1.2-.2.4.2.7.6.6,1.3-.3.3-1.2-.3-1.4-.2.2.2.4,1.3.3,1.4l-.4-.6c-.3.7.9,1.2.2,2.1,0,.3-.9.9-.5,1,.8-.5,3.1-.6,3.7-.3,0,.1-.7,1.6-1.1,2-.6.5-1.4-.8-2-.3.2,0,.4.3.5.4-.2.3-.6-.1-.5.6.7.1,0,1.4.6.3.2.7-.1.7-.1,1.5.4-.3,1.5.7,1.7,1.4-.2,0-.4.1-.5.2,0,1.4-.4,2.2-.4,3.5-.2.1-.4.8-.7.5.1.2.4.4.4.8-.6.8,0-.9-.8-.3.4,0,.5,1,.8,1.6.6-.2.1-1.3-.1-1.9.8,0,1.7,1,2.1,2.4.2,1.1-.5.5-.4.7-.1,2,1.5,1.7.9,3.4-.5.7-1.1,0-1.5.2-.2-.9.3-1.4.3-2l-.3.7c-.2-.3-.3-.9-.2-1.2-.5.6,0,3.5-.5,5,.2.3.4.8.6.5v-.5c.4-.5.5.9.7.3.3.7.8,1.4.5,2.4l-.6.2c.2,0,.4-.6.2-.9.3.4-.8,1.4,0,1.9l.4-.7c.3.7,1,1.5.8,2.3.6-.4,0-.2.6-.8-.9.5,0-2.1-.9-1.3.8-.6.3-1.1,1-1.9-.2,0-.4.3-.3-.4,0,0-.1-.1-.2-.2,0,0,0,0,0,0h0s0,0,0,0c0,.2-.2.3-.3.4-.5-.3-.4-1.5-.7-1.8,0-.4.2.2.4,0l-.4-.6c.4,0,.7-1.1,1-.1v-.9c.3-.5.4-1.2.2-1.7,0-.4-.5-1.1-.1-.7l-.3-1.4h.1c0-1.4-.7-2.8,0-4.4-.1-.5-.3-.9-.1-1.7l.4-.2c-.1-.6.4-1.8,0-2,1-.6.2-2.9.4-3.9h-.5c0-.8-.1-1.4-.3-2.3h-.4c-.2-.3-.1-.8,0-1.4,0-.3.1-.6.2-.9,0-.1,0-.3,0-.4,0-.2,0-.3,0-.5.2.2.1.5,0,.7.1-.2.2-.3.3-.6,0-.3,0-.6,0-.9,0-.6-.1-1.2-.2-1.8-.2-1.1-.5-1.9-.1-3.3h0c-.7.1-1,0-1.2,0,0,0,0,0,.1,0,0,0-.1,0-.2,0-.2,0-.3-.2-.6-.2.2.1.3.2.4.2-.4,0-1.1,0-1.7.2,0-.2,0-.3,0-.5,0,0,0,0-.1,0-.6-.2-.6.2-.4.6-.3,0-.6.2-.8.3-.1-.4-.5-.3-.9-.3-.2,0-.4,0-.6,0-.1,0-.2-.1-.4-.3-.3.4-1.9.3-2.1,1.2,0-.1-.1-.2,0-.2-.4,0-.8-.2-1.2,0l-.2-.6-.9.8c-.6-.4-.8-.6-.2-1.1-1.3.7-1.1.3-2.2,1v-.4c-.3,0-1,.5-1.2.2-.9-.8-4.5-.1-6.8-.8.5,1.2-1.1-.5-1.2.4-.1-.3-.5-.4,0-.7-1.2.3-1.8-.4-2.6.3-.1-.3.3-.4.1-.6,0,0-.4.2-.5,0-.1-.2.2-.2.4-.4-1.2,0-1.3.9-1.4,1.7-.6-.4-.9-.3-1.4.2-.2-.3-.6-.5.2-.6-.2,0-.9-.1-1.5-.1-.1,0-.4,0-.6,0-.2,0-.4,0-.5,0-.3,0-.5.2-.4.3-.2-.2-.8,0-.9,0-1.3,0-1.5,0-2.7,0h.4c0,.4,0,.5-.2.5,0,.4-.2.6-.1,1.3h0c-.3.8-.2,1.2-.2,1.4,0,.3.1.5-.2,1.6h.5c1,.3-.6,1.5-.2,2.5l.3-.4c.4.5-1.4,1.5-1.5,2,0,.1-.1-.2-.2-.4-.6,1.4.6.2.8,1.2-.3.2-.9-.3-.9.5-.3.4,1.1,2.1.5,3,.3-.2.5-.4.7,0,0,.8-1,2-.2,2.7,0,0-.1.1-.2.1.2.6.4,1.9.8,2.2-1.7.5.8,3.6-.7,3.6v1.8c0,0,0,0,0,0-.1,1.1.3,1.5.6,1.9-.1.3-.2,0-.3,0-.3,1.7-.2,1.8.5,3.2h-.5c.3.5-.8,2.5-.2,4.2,0,0-.2,0-.2-.2.6,1.8-1.4,4.4.4,5l.4,1.2c.1-1.6.8.2,1.1-.4.1.6-.5,1.6-.6.8h0c-.9-.4-.3,1.8-1,1.8,0,3.1-.5,6-.5,8.9l.7-.3v1c-.2.3-.6.4-.6-.4-.4.4.3,1.2.5,1.2-.3,1.4-.9-.5-.9-.1v.6c0,0,.1-.1.1-.1.3.5.6.5.6,1.4-.1.5-.5.3-.5.5,0,0,0,0,0,.3v1.3c0,0,.5-.5.5-.5.3.6,0,1.2.6.6-.3.2-.4.6-.5,1.1,0,.2,0,.5,0,.8,0,.1,0,.3,0,.4v.6c0,1.6,0,3.1,0,3.6.2.3.3.6.3,1,.7,0,1.4,0,2.1,0-.3-.1,0-.8.9-.7-.5.7-.1.8.6.9.3,0,.7,0,1.1.2.2,0,.4,0,.5.2.1,0,.2.2.3.3-.6-.6,2.3-.2,1.4-1.1.7.1,0,.5.6.8,1.6-.5,3.6.3,5.6.2,0-.2-.3-.4.1-.7l1.1.9c.4,0,.4-1,1.1-.4-.1-.1-.3-.4,0-.4,4,.9,8.1-.7,12.1.9-.5-.3-.2-.4.2-.4-.3,0,0-.4,0-.7l1.7.7c.3-.7,1.8,0,2-.7h-.5c.7-.6-1-1.5-.9-2.5-.8.8-2.1-1.3-3.4,0-.3-.2.2-.3,0-.5-.3.4-.7.5-1.5.3h0c-2.1,0-3-.4-5.3-.7l.2.5c-.5,0-.6-.2-.8-.3-.6.7,1.4,0,.9.8-.7-1-3.5,0-4-1.1-.8,0,.2.5-.5.5l-.2-.3-.2.4c-.5,0-.8-.4-.8-.7.1,0,.3,0,.5,0-.7-.3-1.9.1-2.1,0l.7.2c-2.1.3-4.7-.1-6.7.5l.2.2c-.8.2-1.1.1-1.4,0-.1,0-.4,0-.5-.1-.1,0-.3,0-.6,0h0c-.2.2-.6.3-.9.3.2-.1.1-.3.1-.4,0-.1,0-.3.2-.4-.7.3-.8.4-1.2.6-.1,0-.3.1-.6.1l.4-.5c-.3,0-.5,0-.6-.5.2.2.3,0,.5-.1.2-.2.3-.3.5-.2.4-.7.2-.8,0-1.2-.2-.5-.3-1,.3-1.4-1-.8-.6,1.5-.8,1.1-.3.4-.8-.7-.7-1.2,0-.6,1.3-1,1.3-2.4,0,.1,0,.2,0,.3.3-.5-.4-1.1,0-1.7-.6-.4,0-.9-.8-1l.2,1.3c-.2-.7-1.1-1.4-.7-2.7.2,0,.4.5.5.7.2-.4-.2-.7,0-1.1.8.1.2,1.6.8,2.4.3-.4-.6-1.5.3-1.1-1.1-.6.1-1.4-.7-2.4h.5c0,0-.3-.4-.3-.7l.6.5c-.5-.8.5-1.5.2-2.3,0,1.6-.6.4-.9,1-.6-2,1.2-1.1,1-3.3,0,.3-.3,1.1-.5.6,0-.4.3-1,.5-1.2,0-1.4-.5.2-.8-.4.6-.5-.2-.7-.4-1.3h.5c.3-1.7-1-.4-.6-1.9l.7.6-.2-.8.5.2c-.4-.8-.3-1.1-.1-1.9-.3.2-.9-.1-.9-.8.3-.5.5.3.4-.8.3.2.7.5.2.9.2,0,.3.2.5.3.3-.5,0-1.3,0-1.7,0,.1,0,.3-.1.4l-.7-1.5c.2-.2.3,0,.5.1,0-.3-.3-.5-.3-1,.4.1.8,0,1,.7l-.4-1.4c.2,0,.5-.7.6-.5.2-.8-.8-1.9-.5-3,0,0-.1-.2-.2-.4,0-1,.6-1.9,0-3l.7-.7c-.2-.9-.9.9-1.2-.6-.2-1.1.6-.4.8-.8-.4-.5-1.1-1.5-.5-2.5.1.3,0,.6,0,.9ZM178.1,132.4c.1.2.4.7.1.8-.6-.2-.3-.4-.1-.8ZM183.3,123.7c-.2.2-.4,0-.7-.1.2,0,.4,0,.7.1ZM209.1,147.1s0,0,0,0c.2-.5.1-.3,0,0ZM208.9,148.1c0,.1.1,0,.2,0-.1,0-.1-.3,0-.6-.1,0-.2.2-.1.5ZM174,175.4v-.2c.3.4.1.3,0,.2Z"/>
      <path class="st2" d="M181.4,124.3c0,0,0-.2,0-.3,0,0,0,.2,0,.3Z"/>
      <path class="st2" d="M178.6,150.8h0c0,0,0,0,0,0h0Z"/>
      <path class="st2" d="M204.8,132.4c0-.2.2-.3.2-.4-.1,0-.2,0-.2.4Z"/>
      <path class="st2" d="M209.7,153.5v-.7c-.1.3-.2.4-.3.6.1,0,.3-.1.3,0Z"/>
      <path class="st2" d="M206.8,159.1c0,0,0,.2,0,.3h.2c0-.4-.2-.7-.3-.3Z"/>
      <path class="st2" d="M208.1,154.1c-.4,0-.3.5-.2.9,0,0,0,0,0,0,.6.1.4-.4.2-.8Z"/>
      <path class="st2" d="M208,155.1c0,.1,0,.3,0,.4.2,0,0-.2,0-.4Z"/>
      <path class="st2" d="M209.2,149.4c-.1.2.5.1.4.3.5.2-.6-1.4-.4-.3Z"/>
      <polygon class="st2" points="206.8 154.5 207.3 154.3 206.9 154.1 206.8 154.5"/>
      <path class="st2" d="M207.2,150.9v.7c0,0,0,0,0,.2,0-.4.1-.9,0-.9Z"/>
      <path class="st2" d="M207.2,151.8c0,.2,0,.5,0,.6,0-.1,0-.4,0-.6Z"/>
      <polygon class="st2" points="206.7 153.5 206.8 153.3 206.8 152.7 206.7 153.5"/>
      <path class="st2" d="M207.3,143v-.8c-.3,0-.4.1-.4.4.1.2.2.5.4.4Z"/>
      <path class="st2" d="M205.9,145.4c.1-.2.2-.2.4-.4h-.6s.2.4.2.4Z"/>
      <path class="st2" d="M205.7,143.1c-.2,0-.5-1.2-.5-.1.2,0,.3.9.5.1Z"/>
      <polygon class="st2" points="206.5 131.2 206.5 131.4 207.6 131.3 206.5 131.2"/>
      <path class="st2" d="M203.5,125.4c.1.2.4-.6.6-.3.3-.2-.1-.2.1-.5-.4.3-.5.1-.7.8Z"/>
      <path class="st2" d="M204.1,124.6c0,0,.2,0,.3-.2-.1,0-.2.1-.3.2Z"/>
      <polygon class="st2" points="205.1 185.6 205.7 185.8 205.3 185.4 205.1 185.6"/>
      <path class="st2" d="M206.3,184.8v.6c.1,0,.5-.6.5-.6-.1,0-.4,0-.5,0Z"/>
      <path class="st2" d="M179.4,130.8h-.2c-.2,0-.2.2-.2.5l.4-.5Z"/>
      <polygon class="st2" points="178.9 139 178.9 138.8 178.3 139.1 178.9 139"/>
      <path class="st2" d="M179.6,145.9c0-.3-.1-.6,0-.9.1.6-.7,1,0,.9Z"/>
    </g>
  </g>
  <g>
    <rect class="st4" x="68.8" y="125.7" width="30" height="49"/>
    <g>
      <path class="st2" d="M98.8,170.8c0,0,0,.2,0,.3,0-.3,0-.4,0-.3Z"/>
      <path class="st2" d="M98.4,174.8c0-1,0-2.7.4-3.7.1.9.7,3.4-.4,3.7Z"/>
      <path class="st2" d="M100.6,170.6l-.3,1.3c-.3-.7.2-.6.3-1.3Z"/>
      <polygon class="st2" points="99.6 171.1 99.2 171 99.6 170.3 99.6 171.1"/>
      <path class="st2" d="M78.7,128.9c.1.2.2.4.2.6l-.2-.6Z"/>
      <path class="st2" d="M75.7,127.1c-.3,0-.5,0-.6-.1.2,0,.3,0,.6.1Z"/>
      <path class="st2" d="M81.4,128.7h-.5c.2,0,.4,0,.5,0Z"/>
      <path class="st2" d="M97.3,141.2c-.3.5-.5,1-.7,1.3-.3-1,.3-1,.7-1.3Z"/>
      <path class="st2" d="M64.4,132.4h.3c-.1.3-.3.3-.3,0Z"/>
      <path class="st2" d="M75,121.8c0,.2,0,.3,0,.4,0,0-.1,0-.2,0l.2-.3Z"/>
      <path class="st2" d="M83.5,128.1s0,0,0,0l.4.2c-.2,0-.4,0-.5-.2Z"/>
      <path class="st2" d="M63.9,136.5c-.2.2-.4.4-.7.5.1-.4.5-.6.7-.5Z"/>
      <path class="st2" d="M75.1,127s0,0,0,0c0,0,0,0,0,0,0,0,0,0,0,0Z"/>
      <path class="st2" d="M79.3,122.1c-.2,0-.4,0-.7-.2.3,0,.5,0,.7.2Z"/>
      <path class="st2" d="M97.3,141.2c0-.1.2-.3.2-.4,0,.2-.1.3-.2.4Z"/>
      <path class="st2" d="M98.1,167.3c0-.4.2-.5.5-.6-.1.2-.2.4-.5.6Z"/>
      <path class="st2" d="M97.8,172.7h.2c0,0-.1,0-.2,0Z"/>
      <path class="st2" d="M81.9,171.8c0,0-.2-.2-.2-.3.1,0,.2,0,.2.3Z"/>
      <path class="st2" d="M64,176.9c.2.7.1,1.6,0,2.7.8.2,1.6.5,2.5.5,0-.1-.2-.3-.3-.4l1.5.3.3-.6c2.6.3,6.2-.3,6.9.6,0-.3,0-.6-.2-.9.6.2,1.1.5,1.6.7l-.9-.6c1.8-.2,4.5.5,4.9.5l-.2-.3c.3-.2.5,0,.8.2l-.2-.5c2.7.1,3.4-1,6.4-.5.8-.1-.5-.2-.5-.4.4-.4,1.5,0,1.7.2-.2-.8-1.5-.5-.5-1.2.7.4-.5-.7.7-.6l.5,1c.7-.2.1-.8,1.2-.7,1.2.4-1.5,1.1.5,1.3,1,0,2.1-2.3,3.9-1.8,1.6-.5-.9-1.6,1.4-1.3l-1.4-.7c.4-.3.1-.8,1.1-.6.3.4.9.9,1.4.9-2.1-.8,1.9-1.2-.1-2.1h.7c0,0-.1,0,0-.2h1c-.6-.3-2-.4-1.4-1.1l1.4-.2c-.4-.6.1-.8,0-1.2l-4.2-1.1c.2.3.8.6.5.9-1.1.3-.9-.6-1.9-.1l.5.4c0-.2-.2-.2,0-.3.4-.3.5,0,.5.3-.4.6-1.4.2-1.7-.2-1.3,0-.3,1-.6,1.2-.7-1-2.3,0-3.1-.4l.5.6c-1,.7-1.9.1-2.5,0l.2.5c-1.4,0-2.1,1.6-3.2-.2l.2.3c-.6.2-1.5.5-2,0,0,.2-.1.5-.4.5-.3-.7-.9-.2-1.8,0,.6.2.4,1.1,1,1.3-1.3.9-1.2-1-2.3-1-.7.5.6.5.8.8-1.7-.5-3.6,2.1-4.6.3.2-.2.5-.4.7-.6-.8-.4-.9-.4-.9-.2.2,0,.2.1.3.3-.8.5-1.5.1-1.9-.3-.4-.4-.5-.9-1.3-.7-.2.3-.1.4-.3.7-.5.2-.3-.3,0-.7.4-.6.7-1,.4-1.2l-.4.5c-.2-.1.3-.8.4-.8-.8.5-.7,0-.8-.7,0-.3,0-.6-.2-.9,0-.1-.2-.3-.3-.4-.1-.2-.3-.4-.6-.5.8-.8,1.5-3,1-3.6-.9-1-1,.8-1.9.5,0-.8.8-1.1.5-2.3.8,0,1.7,2.2,2.2.1l-.5-.3c0,.2.2.5.1.8-.5.6-.6-.4-.8-.5l.3-2.3c.9-.2.7,1.2.9,1.3-.2-1.8-1.5-3.9-.9-5.6l-.3.2c.8-2.1-1.7-1.2-.2-2.9-.2-.9-1,.3-1-1,0-.4.3-.2.5,0,.3-1.7-.9-.7,0-2.3l-1,.3c.7-1.8,2.3-3.7,1.9-5.3-.7,0-.7,1.1-1.2,1.5,1.3-2.1.2-5.1.9-7.1.6.6,1.5-.9,2,.3-1,.3-.3.9-.4,1.6,2.1-1.1-1-4.6.8-4.9l-.7-.3c.1-.3.7-1.1.9-.5l-.5-2.2c-.6.8-1.8,2.4-1,2.9-.8.6-.5-.9-1.4-.3,1.2-1.5-.5-.9-.3-2.4,1.1.7,1.4-1.5,2-1.4,0-.2,0-.7.1-1,.1-.2.4-.4.5-.4,0-.2-.1-.5-.3-1-.2-.4-.3-1,0-1.2-.3,0-.8.1-1.5-.3.4-.2.4-.7-.4-1.6-.4.2-.4.5-.3.7,0,.3.3.5.6.7.5.5,1.1.9.6,1.4-.9,0-1.1.5-1.4,1.4-.5-.5-.7-.3-1.4-.6.9-.6,1-1.3.9-2.2,0-.9-.3-2,0-2.6.1,0,.3,0,.5.1.6.3,1,.7,1.5,1.1.5.4.9.7,1.5.8-.2.2-.3.4-.4.6.4-.5.7.6,1.3.8-.2-.2-.4-.4-.6-.6.3-.1.6,0,.9.4-.2-.3-.5-.6-.8-1,.2-.1.7-.2.8.3,0-.2,0-.4,0-.6,0,.2.2.3.5.2-.2-.1-.3,0-.4-.3.6.1.7-.1.7-.4,0-.1,0-.3,0-.4,0-.1.1-.2.5-.1-.2-.2.2-.5.6-.6,0,1.5,2.4,1.7,3.1,2.5h0s1.7.6,1.7.6c-.3-.1,0-.5.5-.7h0c.5-.2-.6-1.6,1-1.2l.8.4c-.1,0,0-.3,0-.4l.9.4c1.3-1.4,2.5.8,4,.1-.4.1-1.1,0-.8-.4.3-.2.8,0,1,.2v-.2c0,0,2.9.9,2.9.9-.2-.5-1.9-.5-1.1-1.1.4-.7,1.3,0,1.8,0,0,.4-1,.7,0,1,.1-.2,1.1-.6.6-.9,1.2.4,1.9.6,2.1,1.4.2-.2,0-.3,0-.4h0c-.2-.1.2-.9-.6-.5,0-.7.3-.7.7-.7.4,0,.8.2,1.2.1-.2-.3-.5-.6-.9-.9,1.3-.8,3-.9,4.2-.7-.1,1-.3,1.9-.5,2.8-.2.8-.3,1.5-.3,2.2-.4-.6,0-1.2-1-.7-.2.6-.3.8-.3,1,0,.1,0,.2,0,.4,0,.2,0,.6,0,1h0c.5.7-.5,2,.4,2.5.6-.4-.5-1.3.6-1.3v2.2c.6-.7,0-2.2.2-3,0-.6-.2,1.2-.9.9,0-1,.2-1.6.5-2.1.2-.3.4-.4.6-.6.2-.2.5-.4.7-.7.8-.8.8.8.8,1.2-1.2,1.3-1.7,3.2-1.2,5.2l.9,1.1c-.8,1-2.3.6-2.1,2.4l.6-.5c.2.4.3.7.3.8.5-.8,1-1.6,1.5-2.3,1.3,1-.6,2.9-.9,4.4.2,0,.2-.6.6-.8.3,2.2-1.2,4.6-1.5,6.3.6.7.4-1.4,1.2-1.1-.3.9.4,1.9-.4,2.2,1.1-.4,0,2.1,1.1.4.5,3.3-.5,6.9-1.2,10.2.3-.2.6-.2.8,0,0-1.1.3-2.8,1.1-3.4.6.7-.8,1.7-.4,2,.3-.4.3-1.1.8-1.1.6,1-.3,1.5-.4,2.2l-.3-.4c-.8,2.1-2,1.2-1.7,3.4.7.8.6,0,1.4,0-.3.5.6,2.2-.3,2.8v-1.4c-.3,1-.3,1.8-.6,2.5.2,0,.4-.1.4-.3-.3.8-.2,1.7-.8,2.1l.9.2c-.4-.5-.5-1.8,0-2,.8.1.3,1.5.4,2.1.3-2.6,1.7-2.7,1.1-4.9l-.3.4c-.7-1.4.4-2.8.4-4,.2.3.5.4.7.3-.7-2.7-.2-5.3-.6-8.4l.9-.9h-.7c-.3-1.6,1-.4.9-1.3,0,.4-.1.3-.3.4.8-1.7-.6-1-.4-1.9-.7.5-.3,1.9-1.2,1.4.8-1.7.3-4.4,2-4.7-.7-3.2.4-7.2.5-9.9-.3-.4-.2.2-.5,0,.9-1.1-.7-3.6.2-3.6-.2-.8-.9-1.1-1.1-1.2.4-1,.6-2.3.7-3.7l-.2,1.1h-.1c0,0,.3-1.6.3-1.6h0c0-1.2.1-2.4.2-3.7-2.3,0-4.5-.2-6.5-.8.9.3.6.5.3.8-.3.2-.7.4-.3.6-.3-.3-.7-.6-1.3-.8-.6-.2-1.5-.3-1.8-.4-1-.2-2.1-.1-3,0,0,.3-.1.5,0,.7l-1.1-.6v.3c-1.9.2-4.1-1.3-5.4-.6.8.2.8.4.9.9-1.4,0-2.8,0-4.5-.5,0,0,.1.2.2.3-.4.1-1-.2-1.4-.4v.7c-.9-.3-2,0-3.1-.5,0,0-.1.2-.2.2-.1,0-.3,0-.5,0-.4,0-1-.1-1.6-.2-1.2-.2-2.7-.5-3.6-.3-.4,0,.1.1.5.3.3.2.5.4-.5.4-.6-.7-1.3-.7-2-.8-.7,0-1.4,0-2.2-.9l-.6.2.3,1.5c-.3,0-.5-.2-.8-.2.7,1.5.6,1.9.3,2.5-.3.5-.7,1.3-.5,2.7.2,0,.2-.3.3-.2-.2.7-.3,2.7-.7,1.1,0,.4,0,.9,0,1.6,0,.3,0,.6,0,1,0,.3,0,.5,0,.8,0,.6.1.9.5.4-.2,0-.2-.2-.2-.5,0-.5.2-1.3.3-1.7.3.1.4.6.6,1.2v.4c.1,0,.2.2.2.2,0,.1.2.3.4.3,0,0-.2.2-.3.3l.4.2c-.7,1.4-.2,2.8-1.2,3.9.2,0,.4.3.3.8h-.8s0,1.5,0,1.5l1.2-.7c.2,1.6-1.2,2.8-1.4,4.2,1.4.3-.5,2.6.7,3.8l.4-1.1c-.3,2.3.6,2.6.1,4.7-.5-1.8-.2-1.8-1.4-4.4.6,2.6-.8,4.5,0,6.9.3-.2.6-.8.9-.2-.7.5,0,2.3-.8,1.9.3.7,1.1.9,1.2,1.3l-1,2.5h.2c1,2,.7,4,.2,6-.2,1-.5,2-.7,3,0,.5-.1,1-.1,1.5v.4s0,.7,0,.7c0,.5,0,1,.1,1.5l.5-.2c-.2.7-.4,1.5-.7,2.2.4-1.8.6.5,1,.4-.3,1.8-.7,3.8-1,5.9.4-.2,1.3-1.3,1.1-2.4ZM64.4,137.4v-.6c0-.1,0-.3,0-.4v.4c0,.3.4.6,0,.6ZM101.6,143.5c-.4.3-.1-.4-.2-.7v1.1c.1.1.1-.2.2-.4ZM69.8,137.4l.6.4-.4.5v-.8ZM69.9,146.5l.3-.9h.1c0,0-.3,1-.3,1h-.1ZM65.3,156.7c0,0,0-.1.1-.2,0,0,0,.1-.1.2-.4.7.6,1-.4,1.6-.8-.7,0-1.2.4-1.6ZM65.3,140.6c.1-.3.2-.5.1-.7-.3.2-.8.8-1,.3.4-.3.5-1.4,1.1-1.4-.6.9,1,1.6-.2,1.7ZM75.4,122.6h-.2c0,0,.8.5.8.5l-.6-.5ZM79.3,123.2c.5.7,1.7.6,2.5.8.2-.6-.6-1.3-1.6-1.3-1.1-.6-.4,1-.9.5ZM66.4,147.7l.5-.2v.2c0,0,.4-.9.4-.9.7,1.2-.6,2-.8,2.6,0-.5,1.3-2,0-1.7ZM87.7,123.5c.8.4,2.3,1,2.2,1.5,0-1-1.2-1.4-1.5-1.4-.2,0-.4,0-.7-.1ZM87.6,125.4c-1.2-.4-1.3-.9-2.2-1.8,1.2-.4,1.5.8,1.4,1.3.8.4.7-.2,1.1-.3l-.3.7ZM86.4,122.7h-.5c-.6.5-.7,1.6-1.5.5l1.5-.4c.1,0,.3-.2.5-.1ZM98.4,122.7l-.6-.3c.8,0,.7.2.6.3l.4.3c-1.8.3-.8,0-.4-.3ZM88.8,123h-1.4c0,.4,1,.1,1.4,0ZM97.4,123.6c-.9,0-3,.2-2.7.1.3-.5,2.4-.4,2.7-.1ZM99.6,154.7v-.9s.7.4.7.4l-.7.5ZM99.1,144.1l.3.2v.5c0,0-.3-.7-.3-.7ZM99.1,134.4c.1,0,.3,0,.5,0,0-.1.1-.3.3-.3,0,.1-.1.3-.3.3-.2.4,0,1,.1,1.2.3-.2.3-.8.5-1,.8.9-1.6,2.9.7,2.3-.3.4-.9,1.7-1.3,1.2.1-1-.1-3-.5-3.7-.1,0-.2-.1-.2-.3,0,0,.2.2.2.3ZM94.3,126c-.3,0-.5-.1-.5-.2-.3-.2-.5-.4-.4-.7.8.3.2.5.4.7.2.1.4.2.5.2ZM92,126.1c.4.1.8.3,1.2.4-.2-.2-.4-.3-.6-.5.6.3,1.1.6,1.5.9-.5.2-.8.2-1.2,0-.5-.2-.8-.5-.9-.8ZM91.6,126.5l-.2-.6.4.6h-.1s0,.1,0,.1l-2-.3,2,.2ZM70.6,125.4c.6,1.9,2.4,1.4,2.9,2.3-.2-.6.4-1.6-1.5-1.6.7-.3,1.1,0,1.3.2.2.2.3.3.6-.5-.8.1-1.9-.4-2.1-.4h1c-.5-.7-.9-.5-1.2-.3-.3.2-.5.6-1,.4ZM68.8,134.1v1.3s.1-1.2.1-1.2h-.1ZM69.3,165.5c.4,0,1.3,1.5.4,1.9-.1-.8,0-1.7-.4-1.9ZM73.2,174.3c-.4-.1-.8-.3-1.1-.4.4-.5.6-.5.9-.4.2.1.5.3.9.2.1.5-.3.2-.6.5ZM82.4,174.3l.5.2-.5-1v.8ZM81.8,173c.3-.5-.7-.7-.9-.6l.9.6ZM90.1,172.1h-.6c0,0,.5,1,.5,1v-1ZM89.2,173.2c-.1-.6,0-1.5-1.5-1.1,0,.7.3.7-.2,1.5.5.2.8-.1,1-.2-.3-.1-.7.2-.8-.3.5-.3,1-.2,1.4,0,0,.2.1.4.3.5,0-.2-.1-.4-.3-.5ZM84.2,173.9c-.2,0-.3.2-.4.3v-.2c.1-.3.3-.2.4-.1.2,0,.4-.2.7-.2.2-.6-.8-1-1-1.3.4.2.8.7,1.4.4,0-.2,0-.3-.4-.3h.8c.9.7,0,.9-.8,1.2,0,.1,0,.3-.3.4-.1,0-.3,0-.4-.2ZM90.8,175.2l-.4-.2c-.2-.2,0-.5-.2-.6.5,0,1.2.4.6.8ZM68.2,169.9c.2.3.8-.5.7-1.2.3.1.6.2.9.3-.6,0-.5,1.3-.5,1.4-.8.5-.5-.1-1-.6ZM68.2,138.5c1.1-.2.4-2,.7-2.3.2.9.5,2.9-.7,2.3ZM67.7,135.6c0-.5,0-.6.5-.6.2-.2,0-.6.2-.8.5.9-.4.9-.6,1.4,0,.1,0,.3,0,.4,0-.2,0-.3,0-.4ZM67.7,153.9l-.8.6v1c0,0,.8-1.6.8-1.6ZM66.2,164.3c.5,0,.5,1,.2,1.3.6,0,.5-.8.6-1.4,0,0,0-.2,0-.4,0,.1,0,.2,0,.4-.1.2-.4,0-.7,0l-.2-.3-.2.8.2-.4ZM76.7,177.9c.7-.5.7-.3,1.2-.1-.1.2-.7.3-1.2.1ZM65.7,158.8c.3,1.1.9-.5,1.2.2v-.6c.6,1-.7.7-.6,1.4v-.5c-.7-.4-.5.7-1,.8-.2-.5.2-1.7.3-1.3ZM77.8,178.3c1.1-.6.9.6,1.6.7-.9.5-.8-.6-1.6-.7ZM64,165.9h-.1c0,0-.3.8-.3.8h.1c0,0,.3-.8.3-.8Z"/>
      <path class="st2" d="M79.2,172.3c.3,0,.5,0,.6,0-.2,0-.4,0-.6,0Z"/>
      <path class="st2" d="M71.8,132.8c-.2,0-.2-.1-.3-.3,0,0,.2,0,.3.3Z"/>
      <path class="st2" d="M72.1,131.2s0,0,0,0c0,0,0,0,0,0h0Z"/>
      <path class="st2" d="M97.4,166.7c-.7.5-.1-.5-.1-.8,0,.4.5.5.1.8Z"/>
      <path class="st2" d="M98.6,163.7c-.2.2-.4.5-.4.9,0-.2,0-.5.4-.9Z"/>
      <path class="st2" d="M98.3,166.1c-.2-.6-.2-1.1-.1-1.5,0,.4.3.7.1,1.5Z"/>
      <path class="st2" d="M98.4,155.8c-.4.5-.2,1.4-.2,1.4-.4-1.9-.8.4-1.2.6.2-1.2.7-1.2,1.4-1.9Z"/>
      <path class="st2" d="M98.6,153.2c0,.2,0,.4,0,.5-.1-.2-.1-.4,0-.5Z"/>
      <path class="st2" d="M98.2,152.5c.1-.7.6-.9,1-1.2.4.8-.4,1.3-.6,1.9,0-.5,0-.9-.4-.7Z"/>
      <path class="st2" d="M95.7,131.7c0,.2,0,.5-.3.5v-.8c.2-.2.3,0,.3.3Z"/>
      <path class="st2" d="M97.1,128.7c0-.7-.7.2-.5-.2l1-.8c-.1.3-.3.7-.4,1Z"/>
      <path class="st2" d="M102,126.2v.5c0-.2,0-.3,0-.5h0Z"/>
      <path class="st2" d="M94.8,128.4c0,.4-.2.7-.4,1.1,0-.3.3-1.1.4-1.1Z"/>
      <path class="st2" d="M92.9,129.1c0,.1.1.2.2.3,0-.1-.8-.2-1.3-.3h1.1Z"/>
      <polygon class="st2" points="88.7 128.6 88.6 128.8 87.5 128.5 88.7 128.6"/>
      <path class="st2" d="M70.7,150.8c-.9.2-.5-1.6-.8-2.2,1.1.4-.4,1.4.8,2.2Z"/>
      <path class="st2" d="M77.6,172.8l-1.7-.2c1.3-.4.4,0,1.7.2Z"/>
    </g>
  </g>
  <sodipodi:namedview id="namedview4186" bordercolor="#666666" borderopacity="1" fit-margin-bottom="10" fit-margin-left="10" fit-margin-right="10" fit-margin-top="10" gridtolerance="10" guidetolerance="10" inkscape:current-layer="Layer_1" inkscape:cx="-362.44067" inkscape:cy="-271.83051" inkscape:deskcolor="#d1d1d1" inkscape:pagecheckerboard="0" inkscape:pageopacity="0" inkscape:pageshadow="2" inkscape:showpageshadow="2" inkscape:window-height="1052" inkscape:window-maximized="1" inkscape:window-width="2560" inkscape:window-x="0" inkscape:window-y="0" inkscape:zoom="0.1489899" objecttolerance="10" pagecolor="#ffffff" showgrid="true">
    <inkscape:grid id="grid3785" originx="6.0000002" originy="-545.20001" spacingx="1" spacingy="1" type="xygrid" units="px" visible="true"/>
  </sodipodi:namedview>
  <g id="path4182" inkscape:connector-curvature="0" inkscape:export-xdpi="5.792706" inkscape:export-ydpi="5.792706">
    <path class="st0" d="M253.2,115.2l12.6,3.8v26h-58.8v-.2c0-5.2-4.3-9.5-9.5-9.5h-11c-5.2,0-9.5,4.3-9.5,9.5h0s-78,0-78,0h0c0-5.2-4.3-9.5-9.5-9.5h-11c-5.2,0-9.5,4.3-9.5,9.5h0s-58.8,0-58.8,0v-25.6l1.6-.6c23.7-8.4,48.7-12.7,73.9-12.7h104.4c21.4,0,42.6,3.2,63.1,9.3Z"/>
    <g>
      <polygon class="st2" points="253.8 113.1 253.4 112.3 250.3 112.3 253.8 113.1"/>
      <path class="st2" d="M223.8,105.6c-2.8.2-8.1,0-8.4,1.4,1.7-.2,3.4-.4,5.1-.5.6,1.1,3.8,1.5,6.7,1.7-1.1-.2-2.2-.3-3.2-.5.9,0,.4-.7,1.3-.7,4.9,1.3,6.4.2,10.7,2.2h-.3c1.2,0,2.5.1,3.7.2,1.1.4.5.8.1.9,3.3.2,5.9.3,10.1,1.5-1.4-1.3-3.9-1.6-6.3-1.9-2.5-.2-4.9-.4-6.4-1.7h.3c-4.3-.3-9-2.4-13.4-2.5Z"/>
      <path class="st2" d="M239.6,110.2c-.1,0-.2,0-.3,0,0,0,.1,0,.3,0Z"/>
      <path class="st2" d="M63.2,103v.3c.1-.1.3-.3,0-.3Z"/>
      <path class="st2" d="M117.4,105.6c0,0-.2,0-.3,0-.3.4-.2.3.3,0Z"/>
      <path class="st2" d="M202.1,141c0,.3,0,.5,0,.8.3-.4.2-.6,0-.8Z"/>
      <path class="st2" d="M269.6,138.2s0,0,0-.1c0,0,0,0,0,.1Z"/>
      <path class="st2" d="M239.6,143.2v-.4c-.3.2-.2.3,0,.4Z"/>
      <path class="st2" d="M262,142.4c.3,0,.7.2,1,.2-.4-.2-.7-.3-1-.2Z"/>
      <path class="st2" d="M269.8,138.9c0-.2-.1-.5-.2-.7,0,.3,0,.5.2.7Z"/>
      <path class="st2" d="M209,141.4c.2-.3.6-.4.7-.9-.1,0-.2.3-.3.5-.1.1-.3.3-.4.4Z"/>
      <path class="st2" d="M262.5,140.8c.2,0,.3-.1.3-.3-.2,0-.3.1-.3.3Z"/>
      <path class="st2" d="M219,105c.7,0,1.4.2,2.3.2-.9-.2-1.6-.2-2.3-.2Z"/>
      <path class="st2" d="M89.4,131.9c.2-.1.4-.2.5-.3-.4,0-.5,0-.6.1,0,0,0,.1,0,.2Z"/>
      <path class="st2" d="M161.1,141.6h.3c0,0-.2-.1-.3-.2v.2Z"/>
      <path class="st2" d="M138.6,141.7c.1,0,.2-.1.3-.2-.2,0-.3.2-.3.2Z"/>
      <path class="st2" d="M172.9,143.2c0-.4,0-.8-.1-1.2,0,.4,0,.8.1,1.2Z"/>
      <path class="st2" d="M188.9,132c-.7-.3,0-.7.8-1-1-.1-1.9-.1-2.6,0-.2,0-.4,0-.6,0-.3,0-.5,0-.7,0-.5,0-1,.1-1.5.3-1.9.5-3.8,1.1-6.4,2.6.9-.5,1.7-.9,2.6-1.1-1.6,1.1-3.5,3-4.9,5.2-1.4,2.2-2.1,4.6-2.6,6.3,0-.4-.2-.7-.2-1.1,0,.5,0,1,.1,1.5h0c1.8-1.7-4,4.1,4-4h0s0,0,0,0h0s0,0,0,0h0s-.1,0-.1,0h-.3c-.2,0-.4,0-.6,0-.8,0-1.6-.1-2.3-.2-1.5-.2-2.8-.4-3.3,0,1.1.4,0,.7,1.6,1.1l-6.6.8-.5-1.3-3.5.4c.9.5-4.6-.4-4.7.8-2-.5.8-1,1.5-1.5-2,.4-2.2-.2-4,.6l-1.9-1.1-5.1.8c.3-.1,0-.2.2-.3-2.3,1-5.9-.6-8.9,1.1.2,0,.1-.1.2-.2-1.6.9-5.6.2-7.1,0-2.6.2-1.1,1.1-1.2,1.6-7.6-.3-5.2-.2-11.6,1.1-3.8-1.4,4.5-2.3-.3-3.3-.7.7-4,1.2-7.8,1.5-1.7-.2-4.1-.5-6.4-.7-1.2-.1-2.3-.3-3.4-.5-.5,0-1.1-.2-1.5-.3h-.2s0,0,0,0h0c-3.2-3.2,4.4,4.4,3.6,3.6h0s0,0,0,0h0c0,0,0-.2,0-.2,0-.2,0-.3,0-.5,0-.3,0-.6.1-.9-.3.2-.6.4-.9.6-.3-2.1-1.3-4.1-2.6-5.7,1,.7,2,1.6,2.8,2.7-.2-.2-.4-.6-.7-1-.3-.4-.6-.9-1.1-1.4-.8-.9-1.9-1.8-2.8-2.3-1.3-.9-2.2-1.4-2.7-1.9-.6-.4-.9-.8-1.2-1.1-.3-.3-.6-.6-1.1-.8-.3-.1-.6-.2-1.1-.2-.4,0-1,0-1.7.2-.2-.1-.4-.2-.5-.3-1.3.7-4.6.5-8.5.7l1.3-1.2,2.5.3c-.7-.6-1.7-.5-2.9-.3-.6.1-1.2.2-1.8.3-.3,0-.6,0-.9.1-.3,0-.5,0-1,0-.9.1-1.4.3-1.7.6-.3.2-.4.4-.5.6-.1.4,0,.7-.8,1.1-1.1.3-2.3,1.3-3.2,1.6-.6.3-.9.4-1.1.4-.2,0-.3-.2-.3-.5,0-.5.5-1.4.8-1.9-.8,1.3-1.2,2-1.9,3-.2.2-.4.5-.5.8-.2.3-.4.6-.6,1-.4.8-.8,1.8-1,3.1-.6.1-.8-.3-.6-1.1-.3,1.2-.2,2.3.3,2.9-.2.3-.3.6-.4.9v.2c0,0-.1.1-.1.1h0c0,0,0,0,0,0h0s0,0,0,0c-.6.6,5-5,2.6-2.6h0s0,0,0,0h0s0,0,0,0l-.4-.2c-4.9-1-4.8,2.2-10.7,1.8,1.6-.6-5,.2-6.8-.6,2-.2-1-1.7.3-2.5-4.7-.4-1.9,1.4-5.6,1.7l1.5-1.5c-3.6.6-.9.8-4.6,1.3,1-.4-1.7-.4.6-.9-4.9-.1-3.6,0-7.9-.2l-.3,1.4c-1.4.2-2-.5-2.4-.7.6,0,1.5,0,1.4-.2-1.7-1.2-2.7.7-4.7-.4.5.5,1,1.1-.8,1.2.6-.9-2.7-.8-2.8-1.2,1.1.6-3.8.3-4,1.2-2.1-.7.6-.7.8-1.2-.8.6-2.6.6-4.4.6-1.7,0-3.8,0-3.7.2,0,0,0-.2,0-.2-.4.3-1,.5-2,.7-.1-.3-.3-.8-.5-1.4,0-.3-.2-.6-.3-1.1-.1-.6-.2-1.2-.4-1.8l.8,1.5c.4-4.3-1.7-2.6-1.7-6.2,1.2.8,0-6,1.2-4.4-.7-2.1-1-4.4-2-5.8.7-2.1,1.6,3.9,1.9,1.1l-.3-1.5c0-.3-.1-.5-.2-.7l-.2-.7c.2-.1.4-.2.6-.2-.2-.1-.4-.7-.5-1.3,0,0,0-.1,0-.1h.1c0-.2.2-.2.2-.3.1-.1.2-.2,0-.3.5.2,1,.4,1.4.6.4.2.7.4.7.7,0,0,.1,0,.2,0h0s.2-.1.2-.1c.2,0,.5-.2.8-.2.5-.1,1.1-.3,1.6-.4,1.1-.3,2.1-.6,2.8-1.2l.2.3c1.3-1.9,5.5-2,6-3.6l1.4.4c2.8-.9,1.9-2.2,3.1-2.9,1.1-.3,2.5-.9,3.7-1-3.5,1.8,2.1.6,3,1,1.5-.3,5.8-1.3,6.8-2.3-1.6,1.1-.4,1.5-3.6,2.2,1,.5,2.2.2,3.6-.3,1.4-.5,3-1.2,4.8-1.4v.7c5.1-1.3,5.1-2.4,7.2-3.9.7.7.2,1-1.1,2,3.5,0,8.8-1.2,12.7-1.4,1.3.5.5.9-.8,1.2,3.9-1,8.9-.5,11.4-2-1,.6,1.6.3,3.1.6,0-.3.3-.7.4-.7,2.4-.6,7.9-1.2,10.8-.7l-1,.4c6.7.2,9.6-2.3,16.9-1.2,1.3.3-1.4,1.2,1.3,1.2,1.3-.5.9-1.6,4.3-1.3l-.2,1,2.3-1c-1.2-.8-5-.5-2.3-1.4,3,.9,2.7-.9,6.4.2-.9,0-2,.8-2.6,1.2,7.8,1.1,10.9-.9,18.7.3,3.9-.8,9-.9,11.7-1.6-.2,1-.2,1.8-2,2.5,3.3.1,4.9-2,7.3-.6,1.6-1.3,9.3-.8,10.1-2.7.1.4,3.6,0,0,1,4.6-.6,6,1.6,8.1,1.6,1.2,0-1.3-1.2,1.3-1.2.3,0,.4.3.7.3l1-.4c1.1.4-1.2.9-1.3,1.4,3.7.4,6.2-1.1,10.6-1.2l-.8.3h4.5c0,0-.3.2-.3.2l3.6-.6v.5c.7-.1.9-.4,2.1-.5l-.4.6c1.2-.9,5.5-1.3,7.6-1.2l.4.3c1.7-.3,3.4-.6,5.1-.9,2.6.8-3.5,1.1,1.8,1.1l-1.4,1.1c3.8-.2,4.3.5,6.8.4-1.1-.7-2.9-.8-1.5-1.2,2.8,1.6,4.7.1,7.6,0-1.4-.2-2.4-.3-3.5.3-1.5-.2-.5-.7-1.4-.9l-2.2.5-.5-.9c-1.2,0-2.5.2-3.7.3.3-.9-3.4-.4-1.9-1.3-2.6.2-4.1-.5-6.5.3-1.7-.7,2.8-.6.9-.8-5.2.1-10.5.3-15.7.3-5.2,0-10.5-.1-15.8-.3l1-.4c-1,.4-2.4.8-3.2,1.1-1.8-.8-8.8-1.8-11.2-.3-.3,0,.2-.3.4-.4-3.5.2-9.9-.8-14.9-.7-2.1,1.5-7.6-1-9.5,1.1l1-.4c1.7.6-2.4,1.4-3.2,1.9-1.4-1.3,0-1-1.8-2.3l2,.5-.4-1.1c-6.4,2.9-11.9-1.3-15.9.8.2-.1.2-.3.4-.4-2.6-.6-4.5.8-6.5,1.2-.2-.6,1.2-.9,2.2-1.3-4.7-.4-12.5,1.1-17.6.2-1.8.7.7,1-1.2,1.6-1.6-.2-2.7-.8-.8-1.2-1.1-.3-2.6-.5-4.3-.5-1.7,0-3.7.1-5.7.3-4,.3-8.3.8-11.8.5-3.6,1.1-1.3,1.3-6.7,2.4,1.2-.7-1.5-1.7,1.8-2.1l.3-.6c-5.5.4-13,1.3-15.6,3.4-.4-1.2-1,0-3.2-.3-.8.3.1.2.5.2-1.8,1.4-3,.5-4.4,1l.5-.3c-1.2.5-2.5,1-3.7,1.6-.7,0-1.7,0-1.9-.3l.2.8c-2.1.5-1.3-.9-3.8,0l.7.5c-1.7,0-4.1,1.5-4.7.7-.1-.2.2-.2.8-.4-1.4-.3-3.1.3-4.8.9-1.7.7-3.4,1.5-5,1.7l1.2,1.1c-2.9,1.4-1.9.3-2-.2-2,.7-2.6.4-5.3,1.1-1.2.8-.4.7-.9,1.3-1.5.4-3.1.9-4.8,1.3.8-.5,1.6-1.1,2.6-1.7-.8.6-1.7,1.1-2.6,1.5l-.3.2c0,0-.1,0-.2,0v.2s0,.9,0,.9c0,.6,0,1.1,0,1.7,0,.6,0,1.1,0,1.7v1.5c0,.6,0,1.3,0,1.9,0,2.5-.2,4.9.7,6.3-.4,1.6-.8-1.5-1.1-.5-.4,2.3-.2,4.8,0,7.3.1,1.3.3,2.1.4,4.5,0,2,.1,3.8,0,5.7.8,0,1.5.1,2.2.2,1.4.1,3,.2,4.6.3,1,0,2.1,0,3.1.1,1.9,0,3.8,0,5.7,0,3.8,0,7.8-.1,11.7.2v-.4c-.1,0,5.4.3,5.4.3,1.5-.8,5.2-.4,7.6-1.4-.2.3.3.7-.2,1,2.3-.1,4.9-.5,6.3,0l-.8.3c5.2.2,12.4.2,15.1-.5.4,0,.8,0,1,0,0,0,.1,0,.2,0h0s0,0,0,0c1.2-1.2,2.4-2.4,3.5-3.5h0s0,0,0,0c0,0,0-.1.2-.1.2-.2.5-.2.7-.3,0-.8.2-1.4.4-2.1.2-.7.4-1.3.8-2.1.2,0,.4-.1.6-.2.2,0,.5,0,.7,0,0-.4.1-.8.3-1.1.8-.2.4.6,1,.7.3-.2.6-.4,1-.4.1,0,.5,0,.8-.1h.9c1.2-.1,2.4-.1,3.6,0s2.3.1,3.4.2c.5,0,1,0,1.5,0,.2,0,.5,0,.7,0,.1,0,.2,0,.3,0h.2c0-.1-.2-.3-.3-.5.2,0,.3,0,.4,0,.1,0,.3,0,.4,0,.3,0,.5.1.7.3.3.3.4.5-.1.7,1.6.7,2.8,1.3,3.9,2.5.1.2.3.3.4.5.1.2.2.4.3.6.1.2.2.4.3.7,0,.1,0,.2,0,.4v.2s0,0,0,0h0s0,0,0,0c6.6,6.6,1.8,1.8,3.3,3.3h0s0,0,0,0h0c1.6-.1,3.5-.2,5.7-.2,1.2,1.6,7.9-.5,9.2,1.3,3.7-.5,6.1.3,8.7-.8,0,.2.4.3-.2.3,1.5.7,6.4.2,10.1-.3l.2.6c1.3-1.2,7.8-.8,9.1-2,.4.3-.7.5-1.2.7,1.9,1.1,3.4-.5,5.9-.3-.2.3.5.6,0,.8,4.2.6,9.2.4,14.6.1,2.7-.1,5.5-.3,8.3-.3,1.4,0,2.8,0,4.2,0,.7,0,1.4,0,2.1,0h1c0,0,.3,0,.3,0h0s0,0,0,0c1.5-1.5-3.4,3.4,3.4-3.4h0s0,0,0,0h0c0,0,0-.4,0-.4.1-.9-.2-.8-.5-.8-.3,0-.7,0-.2-1.4.4-.3.6.2.8.5.2.3.3.4.8-.2-.1-.7,0-1.1.3-1.5.3-.4.6-.8,1.3-1.2,0,.5.3.5-.2,1.4.4-.1.9-.8,1.7-1.4.4-.2.9-.5,1.4-.5.2,0,.5,0,.7,0,.4,0,.8.1,1.1.3-.1-.4.4-.6.9-.8,2.1-.5,4.4-.3,6.3,0,.9.2,1.8.3,2.4.4.1,0,.3,0,.4,0,0,0,.1,0,.2,0,.1,0,.2,0,.2,0,0,0,.9,0,.1-.3,1,0,2.1.8,1.6,1.3.5-.1,1.2-.3,1.8.1-.3,0-.5.2-.7.3.4.1,1,.1,1.4.4,0-.3,0-.5-.2-.8.2.6.9,1.1,1.3,1.7.2.3.4.6.4.9,0,0,0,.1,0,.2,0,.1,0,.2,0,.3,0,.2-.2.3-.3.4v-.5c0,0-.2-.2-.2-.2v.2s0,0,0,.2v.7c0,.5,0,1,0,1.6l-.3,3.5h.4c1.4-.2,2.8-.5,4.2-.6.7,0,1.4-.2,2.2-.2.4,0,.8,0,1.2,0,.3,0,.5,0,.8,0,.8,1.4,5.5.3,8.3.4v.5c2-.7,7.5-.4,6.5-.6,2.1,0,4.9.3,3.9.8,1.7-.3,5.3-.3,6.2-1.1l3.4,1.2c2.1-1.7,6.8.6,7.1-1.2,1.9.3,1.5.7,2.8,1,2.7-.9,5.4-.7,8.2-.6v.2c.6,0,1.2,0,1.8,0,.3,0,.6,0,.9,0h.5c.3,0,.5,0,.8-.1,2.3-.2,4.6-.4,7-.5,0-1.2-.1-2.4-.1-3.6.5-.2.9-.5,1.4-.9,0-1-.2-1.8-.3-2.5,0-.2,0-.3,0-.5v-.2c0,0,0,0,0-.1,0-.2-.1-.3-.2-.5-.3-.6-.4-1.2-.3-2.2.2-.4.3,0,.4.5-.3-1.9,0-4.4.4-5.9-1-2.9-.6-5.2-1.7-7.7,1.2-2.3.5,3.4,1.7,1.4.2-1.1.3-2.3.3-3.5v-1.6c0-.6,0-1.1,0-1.7,0-1.1,0-2.3-.1-3.4-1.9-.5-3.8-.9-5.6-1.3l-.7-.2h-.2s0,0,0,0h-.2s-.8-.2-.8-.2c-.5,0-1-.2-1.5-.2-.3-.4.2-.4.5-.6,0,0-9.8.5-8.5,2.3-1.4.5-2.8.7.8,2.5,1.4-.1,5.1.3,5.4,1.4l.5-.8c1.2.3,1.8.5,2.2.8.3.2.2.5.2.7,0,.5-.2,1.1.4,1.4,0,0,0,.2,0,.3,0-.1.1-.3.2-.4,0,0,0,0,0-.1,0,0,.1,0,.2,0,.2.2.6.5.3,1.1-.3.2-.4-.2-.6-.2.1,0,.2.2.3.4.1.3.2.8.3,1.3l.6,2.6c-.6.2-.8,0-1.3-1,0,4.8,1.7-1,1.4,4.9-.4,1.1-.6-.4-.9-1.1-.8,2.7,0,4.5.4,7.3-.9,0-.7-1.8-1.3.5.4-.5,1.2-.8,1.3,1-.4-.4-.5,0-.6.6s0,.7,0,1.2c0,.4,0,1,0,1.1.3,0,.7,0,.8.3.1.5-.2.8-.2,1.4.3-.1.6-.4.8-.8.3.9.3,1.8.2,2.3-1.2-.2-2.3-.8-3-1,0-.2.2-.3.4-.3-.3,0-.5-.2-.8-.3-.6-.1-1.2-.2-1.9-.3-1.3-.1-2.7-.1-4.2.3h.3c-5.7.7,1.7,1.3-4.8,2.1-2.2-.2,1-2.8-4-1.8,2.4.7-3.2,1.8-6.1,2.1l3-1.7c-1.2,0-3.2.4-3.8.3v.4c.4,1.4-3.5-.2-5.6.7,2.6-1.9,2.7-1.5,3.2-3.5-2,1-4.3,2-8,1.8l3-1.5c-4.9-.3-10.7,1.8-14.7,3.1,1.1-1.1-.6-1.5,1.2-2.4l-4.7.2,1.3-1.2c-1.9,1.2-4,.4-3.7,2,.5-.2.4-.4,1.4-.3,0,.2-.3.6-.8.9-.3.1-.6.3-1,.4-.2,0-.4,0-.6.1-.2,0-.4,0-.6,0-.5-.2-.3-.3,0-.5.3-.2.6-.3.5-.6-.5.3-.7.2-.9.1,0,0-.1-.1-.3-.1,0,0-.1,0-.2,0,0,0-.3,0-.3,0v.2c0,0,0,0,0,0,0,0,0,.1,0,.2,0,.1.1.2.2.3-.3.2-.5.3-.8.4-.1,0-.2,0-.4,0,0,0,0,0,0-.1v-.2c0-.7,0-1.4-.4-2,.4.7.6.7.8.6.2-.2.4-.5.6-.8h0s0,0,0,0h0c0-.1-.1-.3-.1-.3-.2-.3-.3-.6-.6-1-.4-.7-.8-1.2-.9-1.8.6.1,1.2.3,1.8.4-.3-.3-.7-.5-1-.8-.3-.2-.7-.4-1-.6-.4-.7-.5-1.5.6-.6-.5-.8-1-1.3-1.4-1.6-.4-.3-.7-.5-1-.5-.5-.1-.7.1-1,.3-.3.2-.6.4-1.2.2-.7-.2-1.6-.8-3.6-1.4.1-.2.4-.4,1-.4.6,0,1.4.2,2.4.9.3-.3.4-.5.2-1-.1-.2-.4-.4-.7-.7-.4-.2-.8-.5-1.5-.7,0,0,0,0,0-.1-.6-.2-1.3-.3-2-.3-.3,0-.7,0-1,0-.4,0-.5,0-.8,0-1,0-2,0-3,0-2,0-3.8.3-5,.7Z"/>
      <path class="st2" d="M200.7,131.7c2.7.7,4.7,2.1,5.6,2.7-.1-.3-1.3-1.4-2.7-2.1-.7-.4-1.4-.6-2-.7-.6,0-.9,0-.9.2Z"/>
      <path class="st2" d="M66.5,109.3c-.2,0-.5.1-.7.2.2,0,.5-.1.7-.2Z"/>
      <path class="st2" d="M81.9,108.1c-.2-.1-.5-.2-.8-.3,0,.2.2.4.8.3Z"/>
      <path class="st2" d="M66.7,140.5s0,0,0,0c0,0,0,0,0,0Z"/>
      <path class="st2" d="M13.8,121.5c0-.4.1-.8,0-1.1-.4.2-.5.6,0,1.1Z"/>
      <path class="st2" d="M14.4,141.9c0,0,.2-.1.2-.2-.2,0-.2.1-.2.2Z"/>
      <path class="st2" d="M69.7,134.9c-.6.7-1.2,1.6-1.8,2.6-.5,1-1,2-1.2,3,.2-.9.8-2,1.4-3,.7-1,1.4-1.9,1.6-2.6Z"/>
      <polygon class="st2" points="100.8 106.7 99.2 107.4 100.9 106.9 100.8 106.7"/>
      <path class="st2" d="M86.3,107.1c-.7-.2-3.2.3-2.4.6.8-.3,1.6-.5,2.4-.6Z"/>
      <polygon class="st2" points="31.3 113.4 30.9 114.2 32 113.4 31.3 113.4"/>
    </g>
  </g>
  <path class="st3" d="M251.1,79.9c-.7,3.3-5.9,4.7-9.1,5.5l-4.5,1.1c1.3-6.5-7.3,1.7-11.6-3.6s-1.5-1.9-2.3-2.2-2.5,1.2-3.3,1.1c-4.3-.8-6.7-6.7-4.4-10.5,1.2-1.6,3.9-2.5,5.7-3.6,3,1.6,4.3,4.2,6.5,7.1,2.2-1.5,4.8-3.5,7.1-2s1,3.4,2.2,4.8c4.8-6.4,10.7-2.2,14.9-9.9s3.3-3.9,5.9-1.9c-3.1,3.1-3.8,5.6-4,9.5-1.3,1.3-2.7,2.8-3.1,4.6Z"/>
  <path d="M256.5,34.5c-5.5-5-13-9.7-20.7-7.6,1.2,1.6,3.9.6,4.8,1.1,3.4,2.7,6.6,5.1,10.4,6,.4,1.9,2.2,2.9,3.7,4.2,4.3,3.8,5.6,9.3,6.9,14.8,2.3,9.8-1.2,20.3-9.8,25.4-.6,3.1-5.6,4.5-8.7,5.3l-4.3,1.1c-15.2,1.1-28.8-4.9-31-20.9l-.9-6.6c.9-5.9,2.8-12.7,7.1-16.8l7.1-6.7c.8-.8,2.8-1.5,2.3-3.6,2.5-1.2,5.1-.9,8.1-3.7-7.5.3-16.2,2-22.3,7.3-1.2,1-3.2,5.3-5.2,4.1l-16.8-10.4-15.1-10.5-8.2-5.1c-1.5-.9-2.1-2.2-3.9-2-5.2.6-8.5,10.7-11.5,17.4l-11.4,26.5-.4,6.9c.3.4.6.9.4,1.3-.3.6-1.1.8-1.5.8v.6c-.1.9,0,2.2-1.1,2.7,1.2,1.9-.8,4.7-1,6.3l-.9,7.5c-.1,1.1-.1,2.2,0,3.2,0,.6-.3,1.2-.9,1.5,1.2,1.9-.8,4.7-1,6.3l-.9,7.5c-.3,2.7-1,5.1-.1,7.5h10.9l1-7.8c.2-1.3-.4-2.9.9-3.8v-4.4c0-.7.1-1.4.4-2v-.6h.6l.8-6c.2-.2.3-.4.6-.6l1.2-6.8c0-.3-.4-1.3-.7-2.2v-.4c0-.7.2-1.4.4-2l.4-3.3c.2-1.5.2-2.9,1.5-3.9l1.2-6.8c.1-.6-.2-1.8.8-1.9v-1.7c0-.7,0-1.6.8-1.9l1.9-7c.2-.6,0-1.7.8-1.9l1.8-6.1c.2-.7.2-1.6.9-1.9.7-4.1,3.7-8,5.8-11.6.3-.6.6-1.9,1.7-1.6.6.2,1.2,1.2,1.6,1.7,1.9,2.4,5.3,2.9,7.8,4.7,3,2.1,5.3,4.3,8.9,4.3,1.2,0,2.4.6,2.9,1.8l15.9,10.4c2.4,1.6,1.3,3.4.8,5.3-3.1,10.5-2.8,19.2,3,28.6,4.6,7.5,12.7,10.6,20.5,13.2,8.7,2.9,16.3,1.8,23.8-3,4.4-2.8,9.7-4.3,12-9.3.3-1,.9-2.1,1.8-2.8,3.5-3.8,3-8.8,3.3-13.8.8-10.4-1.8-19.3-9.2-26.1Z"/>
  <g>
    <path class="st0" d="M206.8,156v9.2c0,5.2-4.3,9.5-9.5,9.5h-11c-5.2,0-9.5-4.3-9.5-9.5v-8.9h-78v9c0,5.2-4.3,9.5-9.5,9.5h-11c-5.2,0-9.5-4.3-9.5-9.5v-9H10v86.8h255.8v-87h-59Z"/>
    <g>
      <path class="st1" d="M206.8,156v9.2c0,5.2-4.3,9.5-9.5,9.5h-11c-5.2,0-9.5-4.3-9.5-9.5v-8.9h-78v9c0,5.2-4.3,9.5-9.5,9.5h-11c-5.2,0-9.5-4.3-9.5-9.5v-9H10v86.8h255.8v-87h-59Z"/>
      <g>
        <path class="st2" d="M225.5,156c-.4,0-.9,0-1.4,0,1.3,0,2,0,1.4,0Z"/>
        <path class="st2" d="M206.8,155.5c4.8,0,12.5,0,17.3.4-4.3.1-15.9.7-17.3-.4Z"/>
        <path class="st2" d="M226.4,157.8l-6-.3c3.5-.3,2.9.2,6,.3Z"/>
        <polygon class="st2" points="224.2 156.8 224.5 156.4 227.7 156.8 224.2 156.8"/>
        <path class="st2" d="M86.9,246.2c.6.2,1,.4.7.6l-.7-.6Z"/>
        <path class="st2" d="M72.9,244.4c-1.3,0-2.1,0-2.9-.1.9,0,1.6,0,2.9.1Z"/>
        <path class="st2" d="M99.5,246h-2.5c.8,0,1.7,0,2.5,0Z"/>
        <path class="st2" d="M254.2,244.5c1.2.1,2.3.3,3.3.4.5,0,1,.1,1.5.2.5,0,.8.1,1.5.1-.6,0-1.2,0-1.7,0-.4,0-.8,0-1.2,0-.7,0-1.2,0-1.6-.2-.8-.2-1.2-.4-1.9-.6Z"/>
        <path class="st2" d="M14.4,238.3c-.1,0-.2,0-.3,0,.1-.3.3-.4.3,0Z"/>
        <path class="st2" d="M69.6,239.1c0,.2,0,.3-.3.4-.2,0-.5,0-.7,0l1-.3Z"/>
        <path class="st2" d="M109.3,245.4s0,0,.1,0l2,.2c-1.1,0-1.8,0-2.1-.2Z"/>
        <path class="st2" d="M14.9,222.4c.2-.9.4-1.7.7-2.4-.1,1.9-.5,2.8-.7,2.4Z"/>
        <path class="st2" d="M69.7,244.3s0,0,0,0c.1,0,.3,0,.4,0-.1,0-.2,0-.3,0Z"/>
        <path class="st2" d="M89.7,239.4c-1.1,0-2.1-.1-3.2-.2,1.4,0,2.5,0,3.2.2Z"/>
        <path class="st2" d="M254.2,244.5c-.7,0-1.3-.2-1.9-.2.9,0,1.5.1,1.9.2Z"/>
        <path class="st2" d="M241.7,155.3c1.9,0,2.4.2,2.8.5-1.1-.1-2-.2-2.8-.5Z"/>
        <path class="st2" d="M204.7,160.7v-.8c0,.3,0,.6,0,.8Z"/>
        <path class="st2" d="M156.5,153.3c-.4,0-.7-.2-1-.3.6,0,1,0,1,.3Z"/>
        <path class="st2" d="M103.3,168.2c0-.7.2-1.4.2-2.1v-1s0-.7,0-.7v-1.4s0-.7,0-.7v-.2s0,0,0,0h0c.1-.4.3-.6.4-.7.2,0,.4.1.5.2-.1-.1-.3-.3-.4-.4.3.1.5.2.7.3,0-.2,0-.4,0-.6,7,.3,15.8-.3,18.4.6l-.8-.9,7.5.7-4.3-.6c8.4-.2,21.2.5,23,.5l-.8-.3c1.4-.2,2.5,0,3.9.2l-1.1-.5c5.7,0,9.5-.1,13.3-.3,1.9,0,3.8-.2,5.9-.2.6,0,1.3,0,2,0,.4,0,.9,0,1.4,0,0,.5,0,1-.1,1.5,0,.7.1.5.2,0,0-.4.1-1.1.3-1.2.1.2.2.5.2.8,0,.2,0,.4,0,.6,0,.3,0,.5,0,.8,0,.8,0,1.6-.2,2.3,0,.3,0,.7,0,1,0,.3,0,.6,0,.8,0-.2.1-.5.2-.9,0-.2,0-.4,0-.6,0-.2,0-.3,0-.5,0-.6.2-1.4.2-1.9,0-.3,0-.5,0-.6,0,0,0-.1.1-.1,0,0,.2.4.3,1.6-.2,1.6,0,1.1.2.8.1-.1.2-.2.3.2,0,.2,0,.4.1.9,0,.5,0,1.1.2,1.9-.1.9-.2,1.9,0,2.9,1,1.8,1.4,1.8,1.8,2.1.2.1.5.3.9.8.5.4,1.2,1.1,2.5,1.9,1.5,1,1.8,1.1,1.5,1.1-.3,0-1.3-.3-2.1-.6-.8-.3-1.4-.7-1.3-.5,0,.1.3.4.9.8.6.4,1.5,1,3,1.5.8.2,1.5.4,2.3.4.8,0,1.7,0,2.2-.2,1.3-.2,2.6-.5,4.1-.7,1.5-.3,3.1-.5,4.9-.6.5,0,.9,0,1.4,0,.6,0,1.1,0,1.7-.2,1.1-.2,2.3-.5,3.5-1.1,1.9-1.2,2.3-2.1,2.3-2.3,0-.2-.5,0-.8,0-.4.1-.6.2-.3-.2.2-.2.5-.5,1-1.1.5-.6,1.1-1.4,1.7-2.6-1.1,2.1-2.9,3.7-5,4.5.4-.2.5-.5.6-.6.1-.2.2-.3.4-.5.2-.2.4-.4.7-.8.4-.4.9-.9,1.5-1.7.5-.4,1.2-1.3,1.6-2.4.5-1.1.6-2.4.6-3.7-.1,2.5-.5,3.1-.6,2.9-.1-.2-.2-1.2-.4-2.4-.3-2.3-.7-4.6-1.2,0v-3.5c0,.4,0,.5-.2.3v-4.6c-.3,2.8-.4,9.6-1.1,6.4l-.2-6.6c-.6,1.8-.8-.7-1.2-.3l-.3,4.9v2.4c-.1,0-.2,1.2-.2,1.2v.6c0,.1,0,.2,0,.3-.2,1.4-1.3,2.5-2.4,2.9.2,0,.6,0,.9,0,.3,0,.6-.1.5.2-.4.5-.8.7-1.1.8-.3.1-.6.1-.8.1-.2,0-.5,0-.8,0,0,0-1.2,0-2.4.2l2.1.4s-.1,0-.3-.1c-.1,0-.2,0-.2,0-.1,0,0,0,.5-.1.8-.3,1.1-.1,1.2.1-.2.2-.5.3-.9.4,0,0-.2,0-.3,0,0,0,0,0-.2,0h-.3c-.4,0-.8,0-1.2,0-1.6,0-3.2-.3-4-.5-6.3,0-1.3,1-2.7,1.2-.4-.1-.9-.2-1.4-.3-.3,0-.5,0-.8,0-.3,0-.6,0-.7,0-.7,0-1.4-.2-2.1-.5-.7-.3-1.4-.8-1.9-1.3-.5-.6-.8-1.2-.9-1.8,0,.5,0,1.1.1,1.6-.6-.5-1-1.2-1.2-1.9-.2-.8-.2-1.3-.2-2.5.2-2.8.3-5.3.4-7.2l-.5,1.9c0-2.1,0-3.9-.1-5.5-3.5.2-6.3.4-8.8.5-1.8,0-3.6,0-5.6-.8l.7.3c-2.8.2-6.9.5-9.6,0,0,.2-.5.5-1.6.5-1.5-.7-4.4-.2-8.4,0,2.7.2,1.8,1.1,4.7,1.3-6.3.9-5.7-1-11-1-3.2.5,2.8.5,3.6.8-8.1-.5-16.7,2.1-21.8.3l3.5-.6c-3.2-.4-5-.4-4.6-.2,1,0,1.4.1,1.8.3-4.6.4-8.3.2-11.9-.2-1.8-.2-3.6-.4-5.5-.6-.3,0-.6,0-.9,0-.3,0-.7,0-1,0-.7,0-1.4,0-2.1,0-1.5,0-3,0-4.6,0,0,.7,0,1.4,0,2.1.2-.5.3-1.2.4-1.7.7,0,1.1.2,1.2.3-.3,0-.6,0-.9,0,0,2.5-.4,3.5-.8,5.4-.2.9-.3,2.3-.4,3.2,0,.5,0,1.1,0,1.8v.3s0,.2,0,.2c0,.1,0,.3,0,.4,0,.3,0,.6,0,.9.2-.3.4-.6.5-1,0,.9-.2,1.7-.6,2.1-.3.4-.6.6-.6.5.3.2.2,1-.6,1.9-.7,1-2.1,1.9-3.9,2.3-.4,0-.9.1-1.3.2-.5,0-1.1,0-1.7,0-1.2,0-2.3,0-3.4.2-2.2.2-4.1.4-5.4.9-.2,0-.5,0-.7-.2-.2,0-.5-.1-.8-.2-.3,0-.5-.2-.8-.3-.3-.1-.6-.2-.9-.4-1.2-.6-2.3-1.4-3.1-2.5-.9-1.1-1.4-2.3-1.6-3.4-.1-.6-.2-1.1-.2-1.5,0-.5,0-1.1-.1-1.5-.5-2.3-.7-1.3-1,0-.1.7-.2,1.4-.4,1.9-.1.5-.2.7-.5.3,0-.8,0-1.6,0-2.3,0-.7.2-1.4.2-2.2.2-1.6.3-3.6.2-6.1-.2,0-.5,0-.8,0,.1-.1.5-.3,1.1-.4.4.8.7,3.1,1,4.1.3.9.6.3.8-5.9,0,0-.1,0-.2,0l-2.4.5c.7,0,1.4,0,2.3-.1,0,1,0,2.1,0,3.3-.2,2.1-.4,1.6-.5.5-.1-1.1-.2-2.7-.3-3.1,0,0,0,0,0,0l-12.3-.3c-.4-.5,1-.6,2.6-.7.8,0,1.7,0,2.4,0,1,0,1.8,0,2-.1-.8,0-1.5,0-2.3,0-.5,0-1.1,0-1.6,0-1.1,0-2.2.1-3.3.2-2.3.1-4.6.3-6.8.4-4.6.3-9,.5-13,.2l.7.3c-10-.8-5.8,1.7-13.7.2-4.2.2,1.5,1-4.8,1-1.8,0-.7-.3-.4-.5-1.9,0-3,0-3.8,0-.9,0-1.4.1-1.8.2-.4,0-.7.1-1.4.1-.7,0-1.6,0-3.5-.2,0,.2,0,.5,0,.8.2-.2.3-.3.5-.4l1.2.4h-.8c-.2,2-.4,4.1-.6,6.1-.2,2.1-.5,4.2-.7,6.2-.4,4.1-.7,8.1-.5,11.7.7-.4.7-5,1.2-6.8-1.3,10-.2,24-.9,33.2-.6-2.8-1.5,4.4-2-1.5,1-1.5.3-4.3.4-7.5-2.1,5.1,1,21.4-.8,23l.7,1.4c-.1,1.4-.7,5-.9,2.5l.5,10.2c.6-3.6,1.8-11.1,1-13.5.8-2.9.5,4.2,1.4,1.6-1.2,6.8.5,4.2.3,11.3-.5-1.6-.9.2-1.2,2.3,0,.4-.1,1.3-.2,2,0,.7-.1,1.5-.2,2.1-.1,1.3-.2,2.2-.4,2.1,0,.8,0,1.8,0,3,1.8,0,3.9.1,5.8.3,1,0,2,.1,2.8.2.6,0,1.1.1,1.4.2,4.1,0,13.5-.8,20-.4-2.5-.3-6.4-.8-6.1-1.5,3.2.4,6.8.4,7.4-.4-11.4-1.4-3.7,1.8-14,.9-1.3-.4-2.6-.7-4.3-.9-.8-.1-1.8-.2-2.8-.3-.5,0-1.1,0-1.7-.1-.7,0-1.3,0-2.1,0,1.4-.3,1.7-.4,1.9-.6.2-.2.1-.4.6-.7,6.5,1.9,17,.2,25.5,1.1,3.6.6.9,1.8,9,2l-7,.6c7.7-.5,1.8.6,8.2.8l-2.5-.6c3.9-.1,5.3,0,7.5.4l-3.3-1c2.1-.1,6-.2,6,.3.5-.2.7-.4.7-.6.4.2,1.4.3,3.9.2-1.4-.1-2.5,0-2.5-.3,9.3.2,2.2-1,8-.9-.9-.2.7-.5,2.8-.6-.1,1.5,11.3,1.7,14.4,2.5h0s7.8.6,7.8.6c-1.6-.1.1-.5,2.4-.7h-.4c2.5-.2-3-1.6,4.5-1.2l3.9.4c-.7,0,0-.3.3-.4l4,.4c6.2-1.4,11.6.8,18.9.1-2.1.1-5.3,0-3.9-.4,1.4-.2,3.5,0,4.6.2l-.4-.2,13.8.9c-1.1-.5-8.9-.5-5.4-1.1,2-.7,6,0,8.5,0-.3.4-4.9.7-.3,1,.6-.2,5-.6,2.9-.9,4.7.4,11.6.6,15.9,1.4,1.3-.2-.8-.3-1.5-.4h-.3c-2.9-.1-.4-.9-6-.5-.5-1.3,8.1-.4,13-.5l-7.8-.9c13.2-1.8,31,.1,44.1.2-3.8.4-7,0-6.6,1,8.1.5,7.1.3,15.2.5h-.7c4.2-.6,9.9.4,12.7-.5-1.8-.6-6,.5-6.1-.6h10.2c-3.2-.6-10.2,0-14.1-.2-2.8,0,5.7.2,4.3.9-9.5,0-11.7-.8-16.4-1.8-2.9-.8,4.2-.8,5.9-.8,6.1,1.2,15,1.7,24.4,1.2l5.2-.9c4.7.8,2.7,2.3,11.2,2.1l-2.5-.6c1.9-.2,3.1-.3,4-.3-3.6-.5-7.6-1-10.9-1.5,2.4-.7,5.9-.5,9.6-.1,1.9.2,3.8.4,5.7.6,1,0,1.9.2,2.8.3,1,0,2,.1,3,.2-.5-.2-3.2-.2-3.9-.6,2.4,0,4.8,0,7.3,0,0-2,.2-4.1.3-6.3.1-2,.3-4,.4-5.9.3-3.8.6-7.5.7-10.6-.6-3.4-.4,6.8-1.2,5.1.3-4.3-.4-9.1.4-10.3-1.1,1.9,0-9.9-1.1-1.7-.5-15.5.5-32.5,1.2-48.1-.3.8-.6.8-.8.1,0,5.3-.3,13.1-1.1,16-.6-3.5.8-8.2.4-9.2-.3,1.8-.3,5.3-.8,5.4-.6-4.5.3-7.1.4-10.2l.3,1.7c.3-4.4.8-6,1.1-7.3.3-1.4.6-2.7.6-6.5-.9,0-2,0-3.4,0-2.3.3-2.2.5-1.7.6.5.2,1.3.3,1.1.8-.5,0-1.4,0-2.4,0-1.1,0-2.4,0-3.7.1-2.6,0-5.3,0-6.6-.4h6.4c-4.5-.3-8.7-.3-11.8-.6.3.2.6.4,1.5.4-3.5-.3-8.1-.2-9.9-.8l-1,.9c2.1-.4,8.5-.5,9.5,0-.6.8-7,.3-9.8.3,12.4.3,12.5,1.7,23,1.1l-1.8-.3c.8,0,1.6-.1,2.5-.2h1.2s1,0,1,0c1.3,0,2.5,0,3.6.2-.1,1.2-.2,2.4-.3,3.6,0,.3,0,.5,0,.8,0,.4,0,.7,0,1.1,0,.7,0,1.5,0,2.2-.2-1.6-.5-1.9-.7-1.2.7,12.6.2,25,.6,39.4l-.9,4.3.7.3c.3,7-1,1.5-.9,6.1,0-1.7.1-1.4.3-1.8-.8,8.2.6,4.5.4,9.1.7-2.2.3-8.8,1.2-6.8-.8,8.2-.3,20.8-2,22,0,.6,0,1.1.1,1.7,0,.5,0,1.1,0,1.6-.8,0-1.7,0-2.6,0-1.6,0-3.3,0-5,0-3.6,0-7.1-.1-10.6-.2-7-.2-13.6-.4-19.1-.5-1.7.3,1.1.2.4.5-5-.9-16.9.7-17-.2-2.4.2-3.5.9-4.1,1.1-3.2-.4-7.1-.6-11.2-.7l3,.2h-.3c0,.1-4.3-.2-4.3-.2h.2c-10.2-.3-22,0-31.3-1,5.3.6-1.3,1,1.2,1.4-4.7-1.3-16-1.4-25.2-1.2,0,.3-.7.5.4.7l-5.3-.6.7.3c-9.5.2-19.9-1.3-26.1-.6,3.9.2,3.9.4,4.3.9-6.8,0-13.2,0-21.2-.5.4,0,.7.2.7.3-2.1.1-4.6-.2-6.7-.4l-.3.7c-4.1-.3-9.3,0-14.2-.5-1.9.7-11.7-.7-17.3-.4-2.1-.2,4.7.8-1.3.7-.8-1.5-7.8,0-8.2-1.6l-5.2.6-1.2-.8c-4.5,1.5-6.8-.7-13.4-.2.4.2,1.1.2.7.3-2.1-.2-7.1-.3-3.3-.7-.5,0-1.3,0-2.1,0-.4,0-.9,0-1.3,0-.2,0-.4,0-.7,0h0c-.1,0-.2,0-.3,0,0,0-.2,0-.5.5,0,0,.1-.1.1-.1.2-.1.2,0,.4,0,0,0,.1,0,.2.1,0,0,0,0,.1,0,0,0,.2,0,.3,0,.1,0,.3,0,.4,0,0,0-.1.1-.3.2,0,0-.2,0-.3,0-.1,0,0,0-.1,0-.1,0-.3.1-.5.2-.4.1-.9.2-1.4.5,0,0,0,0-.1,0,0-.1.2-.5.3-.7-.1,0-.3,0-.4,0,0-.4.2-.7.2-1v-.2s0-.1,0-.1v-.3s0-1.2,0-1.2c0-1.6.1-3.3.1-4.8,0-3.1.2-6,.7-8.4-.2-.3-.4-1.4-.3-3.7h.8c0,0,0-7.2,0-7.2l-1.2,3.3c-.2-7.7,1.2-13.2,1.4-19.5-1.4-1.6.5-12.4-.7-17.9l-.4,5c.1-5.3,0-8.4-.1-11.4,0-1.5-.1-3-.1-4.7,0-.9,0-1.8,0-2.8,0-.3,0-.5,0-.8v-.4s0-.1,0-.1h0s0,0,0,0c0-.2,0-.3,0-.5,0,.1,0,.3,0,.4,0,0,0,0,0,.2,0,.2,0,.4,0,.6,0,.8,0,1.6.1,2.3,0,1.4.1,2.6.2,3.8.1,2.6.4,5.7.9,11.8-.2-4.6-.2-8.8,0-12.8,0-2,.1-3.9.2-5.8,0,0,.1,0,.1,0,0,0,0,0,0,0,0,0,0,0,0,0,.7,0,1.3,0,2-.1-.8-.3-3.6-.6-.8-.9,2.2.7,10.6,0,8.9.8,3.5-.3,4.1-1.1,6.2-1.2l11.7,1-.4-.2c4.4-.4,8.6-.6,12.8-.6,2.1,0,4.2,0,6.2,0h.2c0,0,0,0,0,0h0s.2,0,.2,0h.3c.2,0,.4.1.5.2,0,.3-.1.6-.2.8,0,.1,0,.2-.1.3v1.9c-.1,0-.2,1-.2,1,0,.1,0,.4,0,.7v.8c0,1,.2,2,.5,3.1.5,2,1.5,3.9,2.8,5.5,2.6,3.3,6.8,5.4,11.2,5.5.3,0,.4,0,.6,0h.5s1,0,1,0c.7,0,1.4,0,2.1,0,1.4,0,2.8,0,4.2-.1l-.4-.5,2.5.3h.6c0,0,.2.1.2.1h.2s.5,0,.5,0c.7,0,1.3,0,2,0-1.6.2-2.2,0-2.2,0,0,0,.5-.2,1.2-.3.4,0,.8-.2,1.2-.3.4-.1.8-.3,1.2-.4.7-.3,1.3-.6,1.4-.7,3.1-1.1,5.8-3.3,7.5-6.1.9-1.4,1.5-3,1.9-4.7.2-.8.3-1.7.3-2.5v-1.6c0-.1-.4,0-.7.5-.1.3-.2.6-.3,1.2,0,.4,0,.8-.1,1.3,0,.5-.1,1-.2,1.6ZM14.4,218.3v3c0,.6,0,1.2,0,1.9v-1.9c0-1.6-.4-2.7,0-3ZM262.4,240.3c1.1.4-1.1.1-1.6.2h2.4c0,0,0-.3,0-.3-.1-.4-.2-.1-.2.2-.2,0-.5,0-.6,0ZM8.9,218.4l-.6-1.7.4-2.2v3.9ZM8.9,175.4l-.3,4.3v-.4c-.1,0,.2-4.2.2-4.2v.3ZM38.6,159.7c-.3,0-.5,0-.8-.1.3,0,.6,0,.8.1,3.3.4,4.6-.6,7.3.4-3.3.8-5.4,0-7.3-.4ZM13.5,203.2c-.1,1.4-.2,2.1-.1,3.2.3-.7.8-3.6,1-1.5-.4,1.5-.5,6.4-1.1,6.5.6-4.3-1-7.3.2-8.1ZM71.4,239.9h-1.1c0,0,3.9.5,3.9.5l-2.9-.5ZM89.8,240.5c2.2.7,7.8.6,11.7.8,1-.6-2.9-1.3-7.5-1.3-5.4-.6-2,1-4.2.5ZM12.4,170.2l-.5,1.1v-1c0,0-.4,4.3-.4,4.3-.7-5.6.6-9.6.8-12.4,0,2.4-1.3,9.3,0,8.1ZM129,240.9c3.9.4,11,1,10.3,1.5.3-1-5.4-1.4-7.2-1.4-1,0-1.8,0-3.1-.1ZM128.8,242.7c-5.7-.4-6.1-.9-10.4-1.8,5.6-.4,7.2.8,6.5,1.3,3.9.4,3.2-.2,5.3-.3l-1.3.7ZM122.9,240h-2.3c-2.7.5-3.3,1.6-7.2.5l7.2-.4c.6,0,1.4-.2,2.3-.1ZM170.7,240l-2.3-.3c2.3,0,2.6.2,2.3.3l1.9.3c-5.1.3-2.5,0-1.9-.3ZM134.3,240.3h-6.7c.4.4,4.6.1,6.7,0ZM169.2,240.9c-2.8,0-10.2.2-9.2.1.7-.5,7.4-.4,9.2-.1ZM265,191.4v4.2s-.7-2-.7-2l.7-2.2ZM265.5,240.8l-.3-1.2v-2.2c0,0,.3,3.3.3,3.3ZM222,242.8c.2-.1.1-.3-.3-.5-.7,0-1.3-.1-1.6-.3.6,0,1.2.1,1.6.3,1.8.2,4.6,0,5.8-.1-.7-.3-3.6-.3-4.7-.5,4.2-.8,13.6,1.6,10.9-.7,1.8.3,7.8.9,5.7,1.3-4.8-.1-13.9.1-17.5.5-.2.1-.6.2-1.4.2.2,0,.8-.2,1.4-.2ZM160.3,243.3c-1.7,0-2.5-.1-2.8-.2-1.5-.2-2.6-.4-2.2-.7,3.6.3,1.3.5,2.2.7.9.1,1.9.2,2.8.2ZM149.4,243.4l5.7.4-2.9-.5,8.5.9c-4.9.5-10.6-.3-11.4-.9ZM147.4,243.9l-1.2-.6,1.8.6h-.6s.3.1.3.1l-9.5-.3,9.3.2ZM49.8,242.8c-3.6,1.9,8.4,1.4,10.3,2.3.4-.6,4-1.6-5.3-1.6,8.1-.6,5,1.2,9.8-.4-3.9.1-8.5-.4-9.2-.4h4.5c-2.6-1.2-7,.5-10.2.1ZM10,233.9v-6s-.1,5.7-.1,5.7v.3ZM69.6,167.4c.2-.2.8,1.4,2,2.7.6.7,1.3,1.3,2,1.8.7.5,1.3.9,1.6,1.2-1.7-.5-3.1-1.8-4-3-.9-1.2-1.3-2.4-1.6-2.8ZM114.8,155.8l-6.7-.4c1.3-1,6,0,9.2-.1,1.1.5-1.4.2-2.4.5ZM158.5,155.8l2.1.2-2.2-1v.8ZM155.6,154.5c1.3-.5-3.2-.7-4.3-.6l4.3.6ZM182.5,170.8c-.6-.4-1.1-.8-1.5-1.3.2.6.4,1.4.8,2,.2-.2.5-.4.7-.7ZM179.4,169c.2-.4.5-.6.4-1.3,0-.2,0-.4,0-.6,0-.2,0-.5,0-.8,0-.2,0-.3,0-.5,0-.2,0-.4,0-.6,0-.6,0-1.3-.1-2.1-.7-.3-.7,1.5-1.5-.9,0,1.1,0,2,0,2.9,0,.7.2,1.3.4,1.8,0-.3,0-.6-.1-.9,0-.3,0-.6,0-.9,0-.7,0-1.2.3-1.4,0,.6,0,1.3.1,1.7,0,.5.1.9.2,1.4.2.9.4,1.6.6,2.2,0,.3-.1.7.2,1.3.2-.1,0-.6-.2-1.3ZM167.2,155.4c-.9,0-1.6.2-1.9.3l-.4-.2c.9-.3,1.6-.2,2.3-.1.9,0,2-.2,3.1-.2.7-.6-3.7-1-4.9-1.3,1.1,0,2,.3,3.1.4.5,0,1.1.1,1.7.1.5,0,1.4,0,2.4-.1-.2,0-.2-.2-.5-.2-.1,0-.3,0-.6,0-.2,0-.3,0-.6,0-.2,0-.4,0-.6,0h5.2c2.8.3,2.5.5,1.1.7-.7,0-1.7.2-2.9.2-1.1,0-2.3.1-3.5.2-.1.1-.4.3-1.2.4-.7,0-1.3,0-1.9-.2ZM183.7,174.7c-.7-.2-1.3-.6-2-.9-.8-.7-.1-.6-.3-.9,1.9,1.4,5.2,2,2.3,1.9ZM85.9,175.3c1.4-.2-1.8-.8-5-.7l1.7-.9c0,.6,6.4.5,7.1.5.6.4.3.5-.5.6-.8,0-2,.1-3.2.4ZM10.6,213c-1.1,1.1-.4,9.2-.7,11-.2-4.2-.5-13.7.7-11ZM11.1,227c0,2.2,0,2.8-.5,2.6-.2,1.1,0,2.8-.2,3.9-.5-4.3.4-4,.6-6.5,0-.6,0-1.2,0-2,0,.9,0,1.5,0,2ZM25.2,157.4l2.9.8h4.6c0,0-7.5-.8-7.5-.8ZM66.3,162c0,0,.1,0,.1,0,0,0,0,0,0,.1,0,0,0,.2,0,.3,0,.5,0,1.1.1,1.8,0,.4,0,.7,0,1.1,0,.4,0,.9,0,1.2,0,.8.2,1.4.2,1.8.2-.3,0-1.4,0-3,0-1.2,0-2.7,0-4,0-.3,0-.7,0-1.4,0,.4,0,.9,0,1.4-.1.8-.4.3-.7.3l-.2-.8v1.1c0,0-.2,1.9-.2,1.9v-1.1c0,0,.1-.5.1-.5v-.2s0-.2,0-.2ZM132.1,159.4c3.1-.5,3.5-.3,5.6-.1-.7.2-3.5.3-5.6.1ZM48.4,159.3c5.3-.3-2.5-.9.9-1.2h-2.8c4.5-.6,3.2.7,6.4.6h-2.1c-1.7.7,3.2.5,3.6,1-2.5.2-8.2-.2-6.1-.3ZM137,159.8c5.2-.6,4.3.6,7.5.7-4.2.5-3.6-.6-7.5-.7ZM65.2,170.9c-.1-.1-.2-.3-.3-.4.7,2,1.8,3.9,3.4,5.5l.5.3c-1.6-1.5-2.8-3.4-3.5-5.4Z"/>
        <path class="st2" d="M143.5,153.8c1.3,0,2.1,0,2.8,0-.9,0-1.9,0-2.8,0Z"/>
        <path class="st2" d="M7,241.2c.2.1.2.7.3,1.6,0,0-.2-.4-.3-1.6Z"/>
        <path class="st2" d="M17,246.4c.1,0,.3,0,.4,0,0,0,.2,0,.3,0h-.7Z"/>
        <path class="st2" d="M244.8,154.6c-2.2-.7,2.1-.1,3.9-.1-1.8,0-2.4.5-3.9.1Z"/>
        <path class="st2" d="M258.7,155.8c-1-.2-2.5-.4-4.4-.4,1.1,0,2.4,0,4.4.4Z"/>
        <path class="st2" d="M247.3,155.5c2.7-.1,5.1-.2,7,0-1.8,0-3.3.3-7,0Z"/>
        <path class="st2" d="M266.2,186.3c.4-2.2.2-6.4.2-6.4.4,9.1.8-1.8,1.2-2.6-.2,5.7-.7,5.7-1.4,9Z"/>
        <path class="st2" d="M266,198.4c0-.9,0-1.8,0-2.5.1.9.1,1.7,0,2.5Z"/>
        <path class="st2" d="M266.4,201.8c-.1,3.2-.6,4.3-1,5.7-.4-3.8.4-6.3.6-9.1,0,2.2,0,4.4.4,3.4Z"/>
        <path class="st2" d="M209.6,246.1c.7,0,2.5,0,2.5.3h-5.3c-2.1-.2,1.7-.3,2.8-.3Z"/>
        <path class="st2" d="M190,244.7c-4.2,0-2,.7-4.2.5l.2-1,3.9.4Z"/>
        <path class="st2" d="M192.4,239.9h1.2c-.5,0-.9,0-1.4,0h.2Z"/>
        <path class="st2" d="M169.7,245.7l2.9,1.1c-3.6-.3-3.6-1.1-2.9-1.1Z"/>
        <polygon class="st2" points="153.5 246.4 156 246.8 148.2 246.4 153.5 246.4"/>
        <polygon class="st2" points="134.1 245.9 133.4 246.1 128.1 245.9 134.1 245.9"/>
        <path class="st2" d="M9.2,154.3c.4.2.1.4-.7.5.2,1.5.2,3.7.2,6,0,1,0,2,0,2.9,0,.8,0,1.5,0,2-.3-.4-.4-1-.4-1.6,0-.3,0-.7,0-1.1,0-.4,0-.9,0-1.4,0-2.2.2-4.4-.1-6.9.3,0,.6-.1.9-.2Z"/>
        <path class="st2" d="M136.2,154.3l-8.1-.2c6.3-.4,1.8,0,8.1.2Z"/>
      </g>
    </g>
  </g>
</svg>